<svg width="32" height="32" viewBox="0 0 32 32" fill="none" xmlns="http://www.w3.org/2000/svg">
<rect width="32" height="32" fill="#213634"/>
<path d="M21.9543 15.5709H9.28371V24.4338C9.28371 25.2708 9.31653 25.796 9.39859 26.0258C9.48066 26.2556 9.62837 26.4525 9.84174 26.6002C10.0551 26.7644 10.4326 26.83 10.9578 26.83V27.0598H5V26.83C6.08324 26.8957 6.62485 26.3705 6.62485 25.2544V6.70809C6.62485 5.65768 6.54279 4.98476 6.36225 4.70575C6.18171 4.42673 5.73857 4.2626 5 4.22978V4H10.9578V4.22978C10.3013 4.27901 9.85815 4.3939 9.62837 4.60727C9.39859 4.82063 9.28371 5.24736 9.28371 5.88745V14.9144H21.9543V6.65885C21.9543 5.72333 21.8722 5.08324 21.7081 4.73857C21.544 4.39391 21.1008 4.22978 20.3458 4.22978V4H26.238V4.22978C25.7784 4.22978 25.4338 4.27902 25.204 4.39391C24.9742 4.5088 24.8265 4.67292 24.7444 4.9027C24.6624 5.13247 24.6131 5.72333 24.6131 6.65885V24.3517C24.6131 25.2544 24.6624 25.8288 24.7444 26.0422C24.8265 26.272 24.9742 26.4525 25.1712 26.6002C25.3845 26.748 25.7292 26.8136 26.238 26.8136V27.0434H20.3458V26.8136C20.9859 26.8136 21.4127 26.6823 21.626 26.4197C21.8394 26.1571 21.9543 25.4513 21.9543 24.3025V15.5709V15.5709Z" fill="#DFDCD9"/>
</svg>
