<svg width="248" height="89" viewBox="0 0 248 89" fill="none" xmlns="http://www.w3.org/2000/svg">
<g opacity="0.5">
<path opacity="0.5" d="M58.4543 13.6716C57.9665 12.7626 55.5166 7.36392 49.2089 5.27983C46.8033 4.48166 39.4425 0.391083 39.4425 0.391083C39.4425 0.391083 39.1099 6.24427 42.7903 9.40366C47.6569 13.5497 58.4543 13.6716 58.4543 13.6716Z" fill="#213634"/>
</g>
<g opacity="0.5">
<path opacity="0.5" d="M67.7437 16.0216C67.7437 16.0216 62.2564 15.7556 58.6425 17.7621C57.1459 18.5935 51.5366 20.6665 51.5366 20.6665C51.5366 20.6665 55.0951 22.3848 58.6092 21.642C63.2208 20.6665 67.7437 16.0216 67.7437 16.0216Z" fill="#213634"/>
</g>
<g opacity="0.5">
<path opacity="0.5" d="M80.9351 19.5471C80.9351 19.5471 80.9462 12.8514 77.7424 9.72525C76.4122 8.42823 72.9646 2.96304 72.9646 2.96304C72.9646 2.96304 70.6698 8.21761 72.0112 11.9645C73.7738 16.8865 80.9351 19.5471 80.9351 19.5471Z" fill="#213634"/>
</g>
<g opacity="0.5">
<path opacity="0.5" d="M97.553 31.1202C97.553 31.1202 91.0568 27.7501 85.1704 29.5017C82.7426 30.2222 74.3619 31.0537 74.3619 31.0537C74.3619 31.0537 77.4216 36.0533 82.2549 36.541C88.6069 37.1951 97.553 31.1202 97.553 31.1202Z" fill="#213634"/>
</g>
<g opacity="0.5">
<path opacity="0.5" d="M107.829 40.5097C107.829 40.5097 102.664 41.4188 100.103 44.4451C99.0497 45.6978 94.6709 49.2341 94.6709 49.2341C94.6709 49.2341 98.6174 50.4313 101.566 48.8572C105.468 46.762 107.829 40.5097 107.829 40.5097Z" fill="#213634"/>
</g>
<g opacity="0.5">
<path opacity="0.5" d="M102.63 34.2797C102.763 33.6146 104.016 29.8011 101.71 25.6773C100.912 24.2472 99.1381 18.904 99.1381 18.904C99.1381 18.904 96.6217 22.1742 97.0651 25.4999C97.6526 29.8787 102.63 34.2797 102.63 34.2797Z" fill="#213634"/>
</g>
<path opacity="0.5" d="M137.206 88.3885L137.162 88.2555C137.095 88.067 130.278 68.6451 116.033 49.9548C102.874 32.6945 80.4702 12.4633 48.5215 14.2259L48.3774 14.237L48.3552 13.7492L48.4883 13.7382C62.7 12.9622 76.2244 16.3987 88.7067 23.9369C98.6838 29.9675 108.007 38.6253 116.421 49.6555C130.71 68.4012 137.561 87.9007 137.627 88.0892L137.672 88.2222L137.206 88.3885Z" fill="#505F5D"/>
<path d="M11.4514 48.7019H2.89334V54.6881C2.89334 55.2535 2.91551 55.6082 2.97094 55.7634C3.02636 55.9186 3.12614 56.0516 3.27025 56.1514C3.41436 56.2623 3.66933 56.3066 4.02407 56.3066V56.4618H0V56.3066C0.731649 56.351 1.09747 55.9962 1.09747 55.2424V42.7157C1.09747 42.0062 1.04204 41.5517 0.920103 41.3632C0.798162 41.1748 0.498851 41.0639 0 41.0418V40.8866H4.02407V41.0418C3.58064 41.075 3.28133 41.1526 3.12613 41.2967C2.97094 41.4408 2.89334 41.7291 2.89334 42.1614V48.2585H11.4514V42.6824C11.4514 42.0506 11.396 41.6182 11.2851 41.3854C11.1743 41.1526 10.875 41.0418 10.365 41.0418V40.8866H14.3447V41.0418C14.0343 41.0418 13.8016 41.075 13.6464 41.1526C13.4912 41.2302 13.3914 41.3411 13.336 41.4963C13.2805 41.6515 13.2473 42.0506 13.2473 42.6824V54.6327C13.2473 55.2424 13.2805 55.6304 13.336 55.7745C13.3914 55.9297 13.4912 56.0516 13.6242 56.1514C13.7683 56.2512 14.0011 56.2955 14.3447 56.2955V56.4507H10.365V56.2955C10.7974 56.2955 11.0856 56.2068 11.2297 56.0295C11.3738 55.8521 11.4514 55.3754 11.4514 54.5994V48.7019V48.7019Z" fill="#213634"/>
<path d="M25.973 40.6652C28.1569 40.6652 29.9416 41.3303 31.3384 42.6606C32.7241 43.9908 33.4225 45.6537 33.4225 47.638C33.4225 50.1988 32.6133 52.3494 31.0059 54.1009C29.3985 55.8524 27.27 56.7282 24.6095 56.7282C22.4478 56.7282 20.6852 56.0187 19.3106 54.6108C17.936 53.203 17.2487 51.5069 17.2487 49.5336C17.2487 48.2034 17.5812 46.8287 18.2464 45.432C18.9115 44.0241 19.9092 42.8823 21.2395 41.9954C22.5697 41.1086 24.1439 40.6652 25.973 40.6652ZM25.9065 55.8967C26.9818 55.8967 28.0349 55.6085 29.077 55.0321C30.119 54.4556 30.9394 53.6685 31.538 52.6598C32.1366 51.651 32.4359 50.62 32.4359 49.5558C32.4359 48.0482 32.0368 46.6735 31.2276 45.443C30.4183 44.2125 29.3763 43.2481 28.0904 42.5497C26.8044 41.8513 25.6183 41.5077 24.5208 41.5077C22.9799 41.5077 21.572 42.0841 20.3194 43.2481C19.0667 44.4121 18.4348 45.8532 18.4348 47.5826C18.4348 49.7886 19.1997 51.7286 20.7406 53.4025C22.2704 55.0542 23.9998 55.8967 25.9065 55.8967Z" fill="#213634"/>
<path d="M36.3053 41.0531V40.8979H40.7284C41.8481 40.8979 42.6573 40.92 43.1562 40.9755C43.655 41.0198 44.165 41.1861 44.6971 41.4632C45.2181 41.7404 45.6172 42.1173 45.8832 42.594C46.1493 43.0706 46.2823 43.6582 46.2823 44.3455C46.2823 45.1326 46.0495 45.8864 45.5728 46.6069C45.0962 47.3275 44.4199 47.9261 43.5553 48.425L44.6527 50.11C44.8966 50.5312 45.5285 51.4624 46.5595 52.8925C47.5904 54.3225 48.3886 55.1983 48.9539 55.5087C49.5193 55.8191 50.0625 55.9742 50.5946 55.9742C51.1156 55.9742 51.7143 55.7747 52.3905 55.3756L52.457 55.5863C51.6145 56.2736 50.517 56.6172 49.1646 56.6172C48.2666 56.6172 47.4907 56.3512 46.8366 55.819C46.1826 55.2869 45.0629 53.8236 43.4555 51.4292C43.4444 51.4181 43.4333 51.3959 43.4333 51.3848L41.8703 48.9792L40.4846 49.0236H39.2208V54.9766C39.2208 55.4532 39.2873 55.7969 39.4093 56.0075C39.5312 56.2181 39.8416 56.3179 40.3183 56.3179V56.4731H36.3053V56.3179C36.8041 56.2957 37.1145 56.196 37.2365 55.9964C37.3584 55.7969 37.4249 55.42 37.4249 54.8324V42.4609C37.4249 42.0618 37.3695 41.7293 37.2697 41.4632C37.1589 41.1972 36.8374 41.0641 36.3053 41.0531ZM39.2208 41.308V48.6134H40.8504C42.1363 48.6134 43.0897 48.3141 43.7105 47.7044C44.3313 47.0947 44.6417 46.2965 44.6417 45.3099C44.6417 44.3566 44.3313 43.4475 43.7216 42.5829C43.1118 41.7293 42.0365 41.2969 40.4956 41.2969H39.2208V41.308Z" fill="#213634"/>
<path d="M63.5093 40.3546L62.7665 42.2392H62.6113C62.6446 42.1283 62.6557 41.9731 62.6557 41.7847C62.6557 41.6184 62.6002 41.5186 62.4783 41.4743C62.3564 41.4299 62.179 41.4077 61.924 41.4077H57.8556V54.7326C57.8556 55.2869 57.9 55.6527 57.9886 55.8633C58.0773 56.0629 58.1993 56.1959 58.3434 56.2403C58.4986 56.2957 58.7425 56.3179 59.075 56.3179V56.4731H54.8514V56.3179C55.3835 56.2846 55.7161 56.1848 55.8491 56.0075C55.9822 55.8412 56.0487 55.4864 56.0487 54.9543V41.4077H52.1576C51.7585 41.4077 51.5036 41.4299 51.3816 41.4743C51.2597 41.5186 51.2043 41.6295 51.2043 41.8179C51.2043 41.9066 51.2375 42.0507 51.2929 42.2392H51.1378L50.395 40.3546H50.5502C50.6722 40.6096 50.8052 40.7648 50.9271 40.8202C51.0491 40.8756 51.3151 40.8978 51.7253 40.8978H62.0681C62.4783 40.8978 62.7665 40.8756 62.9439 40.8202C63.1213 40.7648 63.2543 40.6096 63.343 40.3546H63.5093V40.3546Z" fill="#213634"/>
<path d="M80.1599 56.4729H77.2111V54.0673C75.7146 55.7413 73.9187 56.5727 71.8457 56.5727C70.3048 56.5727 69.0743 56.1403 68.1764 55.2757C67.2785 54.411 66.8239 53.2137 66.8239 51.6839V42.3499C66.8239 41.7845 66.7574 41.4298 66.6244 41.2746C66.4914 41.1194 66.181 41.0418 65.6821 41.0418V40.8866H69.817V41.0418C69.3847 41.0418 69.0743 41.1083 68.8969 41.2524C68.7196 41.3965 68.6309 41.718 68.6309 42.2279V50.786C68.6309 52.5819 69.0521 53.8567 69.8836 54.6216C70.7261 55.3865 71.6794 55.7745 72.7436 55.7745C74.4286 55.7745 75.9252 55.0207 77.2222 53.502V42.9596C77.2222 42.0395 77.1446 41.4852 76.9783 41.3189C76.812 41.1526 76.5571 41.0639 76.2134 41.0639H76.0693V40.9087H80.171V41.0639C79.661 41.0972 79.3396 41.1748 79.2176 41.3189C79.0846 41.463 79.0181 41.7291 79.0181 42.1171V54.799C79.0181 55.2978 79.0403 55.6304 79.0957 55.7856C79.14 55.9408 79.2398 56.0738 79.395 56.1736C79.5502 56.2734 79.8052 56.3288 80.171 56.3288V56.4729H80.1599Z" fill="#213634"/>
<path d="M90.6906 41.0975L91.4333 43.0486L91.3003 43.0707C91.3003 43.0596 91.1007 42.8601 90.7127 42.4499C90.3248 42.0398 89.8702 41.7294 89.3714 41.5077C88.8614 41.286 88.2961 41.1751 87.6642 41.1751C86.6 41.1751 85.7575 41.4744 85.1256 42.0952C84.4937 42.716 84.1944 43.4366 84.1944 44.3012C84.1944 44.8777 84.3385 45.3654 84.6378 45.7978C84.9261 46.2301 85.5469 46.6181 86.467 46.995C88.0633 47.5382 89.1608 47.9373 89.7483 48.2144C90.3358 48.4916 90.9012 48.9461 91.4555 49.5891C91.9987 50.232 92.2758 51.0634 92.2758 52.0833C92.2758 52.5046 92.2315 52.9147 92.1317 53.2916C92.0319 53.6796 91.8767 54.0455 91.655 54.4002C91.4333 54.7549 91.1783 55.0764 90.8679 55.3757C90.5575 55.675 90.2471 55.8857 89.9368 56.0409C89.6264 56.1961 89.1164 56.3069 88.4402 56.3845C87.764 56.4621 87.3095 56.4954 87.0878 56.4954H82.9307V51.9725H83.0859C83.0969 53.469 83.4517 54.5221 84.139 55.1097C84.8263 55.7083 85.9016 55.9965 87.3649 55.9965C88.6952 55.9965 89.6929 55.6861 90.3802 55.0543C91.0675 54.4224 91.4111 53.6686 91.4111 52.7928C91.4111 52.2607 91.2892 51.7951 91.0564 51.4182C90.8125 51.0413 90.4799 50.7087 90.0476 50.4205C89.6153 50.1323 88.806 49.7886 87.6088 49.3784C86.4226 48.9572 85.5801 48.5914 85.0924 48.281C84.6046 47.9706 84.2055 47.4939 83.884 46.862C83.5625 46.2301 83.3963 45.5872 83.3963 44.9331C83.3963 43.7248 83.8064 42.716 84.6378 41.8957C85.4693 41.0753 86.5557 40.6652 87.897 40.6652C88.418 40.6652 88.9834 40.7206 89.5931 40.8425C90.2028 40.9645 90.5354 41.0421 90.613 41.0753C90.6351 41.0975 90.6573 41.0975 90.6906 41.0975Z" fill="#213634"/>
<path d="M102.52 41.0531V40.8979H109.67C111.488 40.8979 112.929 41.042 113.982 41.3302C115.036 41.6184 115.956 42.0618 116.743 42.6826C117.53 43.2923 118.151 44.0794 118.605 45.0328C119.06 45.9861 119.292 47.0504 119.292 48.2365C119.292 49.3672 119.06 50.4869 118.583 51.5844C118.106 52.6818 117.463 53.6241 116.643 54.4223C115.823 55.2204 114.958 55.7636 114.06 56.0518C113.162 56.3401 111.754 56.4953 109.859 56.4953H102.542V56.3401H102.731C103.107 56.3401 103.362 56.1849 103.484 55.8745C103.606 55.5641 103.662 55.0098 103.662 54.2116V42.8489C103.662 42.0064 103.584 41.4965 103.44 41.3191C103.285 41.1417 102.974 41.0531 102.52 41.0531ZM107.83 41.2304H105.435V53.3137C105.435 54.0786 105.568 54.644 105.823 55.0098C106.078 55.3756 106.522 55.6528 107.143 55.819C107.763 55.9853 108.595 56.0629 109.648 56.0629C112.563 56.0629 114.614 55.3091 115.8 53.8126C116.975 52.316 117.574 50.6753 117.574 48.9127C117.574 46.8286 116.765 45.0328 115.146 43.503C113.528 41.9842 111.089 41.2304 107.83 41.2304Z" fill="#213634"/>
<path d="M122.153 41.0752V40.8979H131.941V43.0485H131.786C131.575 42.2503 131.398 41.7847 131.254 41.6406C131.11 41.4965 130.755 41.43 130.19 41.43H125.046V48.425H129.813C130.289 48.425 130.589 48.3806 130.711 48.2919C130.833 48.2033 130.899 48.0702 130.91 47.9039H131.065V49.3783H130.91C130.877 49.1788 130.788 49.0347 130.666 48.9682C130.533 48.9016 130.289 48.8573 129.946 48.8573H125.046V53.6685C125.046 54.389 125.112 54.9211 125.245 55.2426C125.379 55.5641 125.589 55.7636 125.888 55.8412C126.188 55.9188 126.62 55.9632 127.219 55.9632H129.968C130.844 55.9632 131.398 55.9299 131.642 55.8745C131.886 55.8191 132.096 55.6971 132.263 55.5197C132.429 55.3424 132.562 54.9544 132.651 54.3447H132.806V56.4842H122.153V56.329C122.507 56.3068 122.784 56.2403 122.973 56.1184C123.161 56.0075 123.25 55.6971 123.25 55.2204V42.6272C123.25 42.0618 123.206 41.6517 123.106 41.4189C123.006 41.1972 122.685 41.0752 122.153 41.0752Z" fill="#213634"/>
<path d="M134.623 56.4731V56.3179C135.111 56.3179 135.421 56.2292 135.566 56.0408C135.71 55.8523 135.787 55.5419 135.787 55.0985V42.3501C135.787 41.8956 135.732 41.5741 135.621 41.3745C135.51 41.175 135.166 41.0641 134.601 41.0531V40.8979H138.78V41.0531C138.392 41.0531 138.126 41.0974 137.96 41.1972C137.805 41.2969 137.705 41.4078 137.65 41.5408C137.605 41.6739 137.572 41.9732 137.572 42.4498V53.3802C137.572 54.3225 137.794 54.9766 138.248 55.3645C138.703 55.7525 139.468 55.941 140.565 55.941H142.461C143.381 55.941 144.046 55.7193 144.467 55.2648C144.888 54.8103 145.132 53.9678 145.177 52.7151H145.332V56.462H134.623V56.4731Z" fill="#213634"/>
<path d="M152.327 40.8979V41.0531C152.128 41.0309 151.895 41.0641 151.64 41.1528C151.385 41.2415 151.241 41.3635 151.196 41.5187C151.152 41.6849 151.13 42.0618 151.13 42.6715V54.6218C151.13 55.2648 151.152 55.6639 151.208 55.808C151.263 55.9521 151.363 56.074 151.518 56.1627C151.673 56.2514 151.939 56.3068 152.327 56.3068V56.462H148.17V56.3068C148.691 56.3068 149.013 56.207 149.146 56.0075C149.268 55.808 149.334 55.3535 149.334 54.6329V42.8157C149.334 42.0729 149.268 41.5963 149.123 41.3635C148.979 41.1307 148.669 41.0309 148.17 41.0641V40.9089H152.327V40.8979Z" fill="#213634"/>
<path d="M168.634 41.685L169.222 43.3368H169.067C167.559 41.8402 165.785 41.0864 163.735 41.0864C161.617 41.0864 159.899 41.7183 158.591 42.9821C157.283 44.2458 156.629 45.7756 156.629 47.5604C156.629 48.669 156.917 49.9438 157.504 51.3738C158.081 52.815 159.001 53.99 160.265 54.9212C161.517 55.8524 163.036 56.3069 164.821 56.3069C165.996 56.3069 167.138 56.1185 168.269 55.7416C169.388 55.3646 170.231 54.8547 170.785 54.2228L170.918 54.2672L169.832 55.9411C168.069 56.318 166.927 56.5508 166.395 56.6173C165.863 56.6838 165.165 56.7282 164.289 56.7282C161.03 56.7282 158.691 55.9744 157.283 54.4556C155.875 52.9369 155.177 51.13 155.177 49.0237C155.177 47.6047 155.542 46.2301 156.263 44.9109C156.983 43.5918 158.025 42.5608 159.389 41.807C160.753 41.0532 162.305 40.6652 164.056 40.6652C164.932 40.6652 165.686 40.7428 166.329 40.898C166.972 41.0532 167.493 41.2194 167.925 41.3857L168.623 41.6518C168.612 41.6629 168.623 41.6739 168.634 41.685Z" fill="#213634"/>
<path d="M177.291 40.8979V41.0531C177.092 41.0309 176.859 41.0641 176.604 41.1528C176.349 41.2415 176.205 41.3635 176.161 41.5187C176.116 41.6849 176.094 42.0618 176.094 42.6715V54.6218C176.094 55.2648 176.116 55.6639 176.172 55.808C176.227 55.9521 176.327 56.074 176.482 56.1627C176.637 56.2514 176.903 56.3068 177.291 56.3068V56.462H173.134V56.3068C173.655 56.3068 173.977 56.207 174.11 56.0075C174.232 55.808 174.298 55.3535 174.298 54.6329V42.8157C174.298 42.0729 174.232 41.5963 174.088 41.3635C173.944 41.1307 173.633 41.0309 173.134 41.0641V40.9089H177.291V40.8979Z" fill="#213634"/>
<path d="M188.422 49.3008H183.854L181.493 55.1762C181.327 55.5974 181.249 55.8635 181.249 55.9633C181.249 56.1961 181.427 56.318 181.77 56.318V56.4732H179.453V56.318C179.764 56.318 180.019 56.2404 180.24 56.0852C180.462 55.93 180.684 55.542 180.939 54.9101L186.581 40.6652H186.859L192.412 54.4224C192.412 54.4889 192.557 54.8325 192.845 55.4201C193.133 56.0187 193.565 56.318 194.153 56.318V56.4732H190.517V56.318C190.849 56.318 191.016 56.185 191.016 55.93C191.016 55.7526 190.938 55.4755 190.772 55.0875C190.739 55.0543 190.716 55.0099 190.694 54.9545C190.683 54.888 190.672 54.8436 190.661 54.8436L188.422 49.3008ZM183.998 48.8685H188.211L186.105 43.5585L183.998 48.8685Z" fill="#213634"/>
<path d="M196.414 41.0531V40.8979H200.837C201.957 40.8979 202.766 40.92 203.265 40.9755C203.764 41.0198 204.274 41.1861 204.806 41.4632C205.327 41.7404 205.726 42.1173 205.992 42.594C206.258 43.0706 206.391 43.6582 206.391 44.3455C206.391 45.1326 206.159 45.8864 205.682 46.6069C205.205 47.3275 204.529 47.9261 203.664 48.425L204.762 50.11C205.006 50.5312 205.637 51.4624 206.668 52.8925C207.699 54.3225 208.498 55.1983 209.063 55.5087C209.628 55.8191 210.171 55.9742 210.704 55.9742C211.225 55.9742 211.823 55.7747 212.499 55.3756L212.566 55.5863C211.723 56.2736 210.626 56.6172 209.274 56.6172C208.376 56.6172 207.6 56.3512 206.946 55.819C206.292 55.2869 205.172 53.8236 203.564 51.4292C203.553 51.4181 203.542 51.3959 203.542 51.3848L201.979 48.9792L200.594 49.0236H199.33V54.9766C199.33 55.4532 199.396 55.7969 199.518 56.0075C199.64 56.2181 199.951 56.3179 200.427 56.3179V56.4731H196.403V56.3179C196.902 56.2957 197.212 56.196 197.334 55.9964C197.456 55.7969 197.523 55.42 197.523 54.8324V42.4609C197.523 42.0618 197.467 41.7293 197.368 41.4632C197.268 41.1972 196.946 41.0641 196.414 41.0531ZM199.33 41.308V48.6134H200.959C202.245 48.6134 203.199 48.3141 203.819 47.7044C204.44 47.0947 204.751 46.2965 204.751 45.3099C204.751 44.3566 204.44 43.4475 203.831 42.5829C203.221 41.7293 202.146 41.2969 200.605 41.2969H199.33V41.308Z" fill="#213634"/>
<path d="M226.689 56.4729H223.74V54.0673C222.244 55.7413 220.448 56.5727 218.375 56.5727C216.834 56.5727 215.603 56.1403 214.705 55.2757C213.808 54.411 213.353 53.2137 213.353 51.6839V42.3499C213.353 41.7845 213.286 41.4298 213.153 41.2746C213.02 41.1194 212.71 41.0418 212.211 41.0418V40.8866H216.346V41.0418C215.914 41.0418 215.603 41.1083 215.426 41.2524C215.249 41.3965 215.16 41.718 215.16 42.2279V50.786C215.16 52.5819 215.581 53.8567 216.413 54.6216C217.255 55.3865 218.208 55.7745 219.273 55.7745C220.958 55.7745 222.454 55.0207 223.751 53.502V42.9596C223.751 42.0395 223.674 41.4852 223.507 41.3189C223.341 41.1526 223.086 41.0639 222.742 41.0639H222.598V40.9087H226.7V41.0639C226.19 41.0972 225.869 41.1748 225.747 41.3189C225.614 41.463 225.547 41.7291 225.547 42.1171V54.799C225.547 55.2978 225.569 55.6304 225.625 55.7856C225.669 55.9408 225.769 56.0738 225.924 56.1736C226.079 56.2734 226.334 56.3288 226.7 56.3288V56.4729H226.689Z" fill="#213634"/>
<path d="M243.983 40.8979H246.444V41.0531C245.612 41.0974 245.191 41.5297 245.191 42.3501C245.191 42.5274 245.213 42.7713 245.258 43.0817L246.898 54.8879C246.998 55.4754 247.109 55.8523 247.231 56.0186C247.353 56.1849 247.608 56.2847 247.996 56.3179V56.4731H244.493V56.3179C244.958 56.329 245.191 56.1073 245.191 55.6417C245.191 55.5419 245.169 55.3313 245.124 55.0209L243.528 43.5806L237.941 56.4731H237.83L232.21 43.6027L230.636 55.1096C230.602 55.2869 230.591 55.4865 230.591 55.7082C230.591 56.1184 230.824 56.3179 231.301 56.3179V56.4731H228.917V56.3179C229.272 56.3179 229.505 56.2736 229.616 56.1849C229.716 56.0962 229.793 55.9521 229.849 55.7636C229.904 55.5752 229.948 55.3535 229.971 55.1096L231.755 42.5274C231.467 41.829 231.179 41.4078 230.88 41.2637C230.591 41.1196 230.314 41.0531 230.037 41.0531V40.8979H232.975L238.451 53.6352L243.983 40.8979Z" fill="#213634"/>
<path d="M60.5828 74.1653C60.871 74.3427 61.1038 74.6088 61.2812 74.9524C61.4585 75.2961 61.5361 75.7062 61.5361 76.1607C61.5361 76.7815 61.392 77.3026 61.1149 77.7238C60.8377 78.1451 60.4941 78.4665 60.0839 78.6661C59.6738 78.8656 59.2747 78.9765 58.8756 78.9765C58.6206 78.9765 58.3878 78.9543 58.1883 78.8989C57.9887 78.8545 57.7781 78.7659 57.5675 78.655V81.2158C57.5675 81.4596 57.6008 81.6481 57.6562 81.759C57.7116 81.8698 57.8336 81.9585 58.0109 82.0028C58.1883 82.0472 58.4433 82.0694 58.798 82.0694C58.8091 82.0694 58.8202 82.0915 58.8202 82.147C58.8202 82.1913 58.8091 82.2246 58.798 82.2246C58.5209 82.2246 58.2991 82.2246 58.1329 82.2135L57.2349 82.2024L56.5587 82.2135C56.4478 82.2246 56.2927 82.2246 56.1042 82.2246C56.082 82.2246 56.0709 82.2024 56.0709 82.147C56.0709 82.1026 56.082 82.0694 56.1042 82.0694C56.3259 82.0694 56.4922 82.0472 56.603 82.0028C56.7139 81.9585 56.7804 81.8809 56.8248 81.759C56.8691 81.637 56.8913 81.4596 56.8913 81.2158V75.3958C56.8913 75.0965 56.858 74.8859 56.7915 74.7529C56.725 74.6198 56.6141 74.5644 56.4478 74.5644C56.2705 74.5644 56.0488 74.6198 55.7938 74.7418L55.7716 74.7529C55.7384 74.7529 55.7162 74.7307 55.7051 74.6864C55.694 74.642 55.694 74.6198 55.7273 74.5977L57.1019 73.9436C57.113 73.9325 57.1462 73.9325 57.1906 73.9325C57.3014 73.9325 57.4012 74.0212 57.4788 74.1875C57.5564 74.3538 57.5897 74.6088 57.6008 74.9302C58.2991 74.2208 58.9975 73.866 59.6848 73.866C59.9841 73.8993 60.2946 73.988 60.5828 74.1653ZM60.3278 78.1561C60.6049 77.7681 60.7491 77.236 60.7491 76.5487C60.7491 75.8503 60.5939 75.3182 60.2945 74.9302C59.9842 74.5422 59.5962 74.3538 59.1306 74.3538C58.8423 74.3538 58.5763 74.4203 58.3213 74.5644C58.0774 74.7085 57.8225 74.9081 57.5675 75.163V77.9455C57.8003 78.2005 58.0442 78.4 58.3102 78.522C58.5763 78.6439 58.8867 78.7215 59.2525 78.7215C59.6848 78.7326 60.0507 78.5441 60.3278 78.1561Z" fill="#213634"/>
<path d="M67.1787 74.0991C67.3449 74.1989 67.4225 74.3208 67.4225 74.4539C67.4225 74.5647 67.3893 74.6534 67.3228 74.731C67.2562 74.8086 67.1454 74.8419 67.0235 74.8419C66.9459 74.8419 66.8793 74.8308 66.835 74.7975C66.7796 74.7643 66.7131 74.731 66.6465 74.6645C66.5689 74.598 66.5024 74.5536 66.4359 74.5204C66.3694 74.4871 66.2918 74.476 66.2031 74.476C66.0923 74.476 65.9814 74.5204 65.8595 74.6091C65.7375 74.6978 65.5491 74.8973 65.2941 75.1855V77.835C65.2941 78.0789 65.3274 78.2673 65.3828 78.3782C65.4493 78.489 65.5602 78.5777 65.7264 78.622C65.8927 78.6664 66.1477 78.6886 66.4913 78.6886C66.5246 78.6886 66.5357 78.7107 66.5357 78.7662C66.5357 78.8105 66.5135 78.8438 66.4913 78.8438C66.2253 78.8438 66.0147 78.8438 65.8595 78.8327L64.9394 78.8216L64.2631 78.8327C64.1523 78.8438 64.0082 78.8438 63.8197 78.8438C63.7976 78.8438 63.7865 78.8216 63.7865 78.7662C63.7865 78.7218 63.7976 78.6886 63.8197 78.6886C64.0414 78.6886 64.2077 78.6664 64.3186 78.622C64.4294 78.5777 64.4959 78.5001 64.5403 78.3782C64.5735 78.2673 64.5957 78.0789 64.5957 77.835V75.3851C64.5957 75.1079 64.5625 74.9084 64.4959 74.7754C64.4294 74.6534 64.3186 74.5869 64.1634 74.5869C64.0303 74.5869 63.8086 74.6534 63.4982 74.7754H63.4761C63.4428 74.7754 63.4206 74.7532 63.4096 74.7199C63.3985 74.6867 63.4096 74.6534 63.4428 74.6423L64.8728 73.9661L64.9504 73.955C65.028 73.955 65.1056 74.0548 65.1832 74.2432C65.2608 74.4317 65.3052 74.6756 65.3052 74.9749V74.986C65.6378 74.5869 65.9149 74.3208 66.1144 74.1767C66.314 74.0326 66.5024 73.955 66.6798 73.955C66.8572 73.955 67.0235 73.9994 67.1787 74.0991Z" fill="#213634"/>
<path d="M73.9413 78.1675C73.9745 78.1675 73.9967 78.1897 74.0078 78.2229C74.0189 78.2562 74.0078 78.2894 73.9745 78.3005L72.6997 78.9102C72.6665 78.9213 72.6332 78.9324 72.5999 78.9324C72.4891 78.9324 72.4004 78.8548 72.3117 78.7107C72.223 78.5666 72.1787 78.367 72.1454 78.1231L71.5025 78.5444C71.2918 78.6774 71.1145 78.7772 70.9593 78.8326C70.8041 78.8881 70.6378 78.9213 70.4604 78.9213C70.15 78.9213 69.9172 78.8437 69.7509 78.6774C69.5847 78.5222 69.496 78.3116 69.496 78.0677C69.496 77.8238 69.5957 77.6021 69.7953 77.4248C69.9948 77.2474 70.3163 77.07 70.7708 76.9037L72.1343 76.3938V75.5513C72.1343 74.6312 71.8794 74.1656 71.3583 74.1656C71.0812 74.1656 70.8706 74.2543 70.7154 74.4427C70.5713 74.6312 70.4715 74.8418 70.4272 75.0857C70.405 75.2298 70.3606 75.3517 70.2941 75.4515C70.2276 75.5513 70.1168 75.5956 69.9616 75.5956C69.8285 75.5956 69.7288 75.5624 69.6623 75.4848C69.5957 75.4072 69.5625 75.3185 69.5625 75.2298C69.5625 75.0303 69.6955 74.8307 69.9505 74.6312C70.2055 74.4316 70.5159 74.2654 70.8706 74.1323C71.2253 73.9993 71.5468 73.9328 71.824 73.9328C72.1565 73.9328 72.4226 74.0437 72.5889 74.2543C72.7551 74.4649 72.8438 74.7753 72.8438 75.1855V77.5024C72.8438 77.7906 72.8771 78.0012 72.9547 78.1342C73.0323 78.2673 73.1542 78.3338 73.3205 78.3338C73.4757 78.3338 73.6752 78.2784 73.9302 78.1786H73.9413V78.1675ZM72.1343 77.9569V77.8904V76.5712L70.9814 77.0146C70.7486 77.1033 70.5824 77.2141 70.4826 77.325C70.3828 77.4469 70.3274 77.591 70.3274 77.7573C70.3274 77.9569 70.3939 78.1232 70.5159 78.2562C70.6489 78.3892 70.8152 78.4557 71.0147 78.4557C71.181 78.4557 71.3805 78.3892 71.6133 78.2562L72.1343 77.9569Z" fill="#213634"/>
<path d="M76.7341 78.6328C76.3683 78.4 76.1023 78.0896 75.9249 77.7238C75.7475 77.358 75.6699 76.9589 75.6699 76.5487C75.6699 76.0166 75.8029 75.5621 76.069 75.163C76.335 74.7639 76.6787 74.4646 77.0889 74.2651C77.5101 74.0545 77.9314 73.9436 78.3748 73.9436C78.7406 73.9436 79.0732 74.0212 79.3725 74.1653C79.6718 74.3094 79.827 74.4868 79.827 74.7085C79.827 74.8194 79.7827 74.908 79.7051 74.9856C79.6275 75.0632 79.5166 75.1076 79.3947 75.1076C79.173 75.1076 78.9845 74.9746 78.8515 74.6974C78.7406 74.5311 78.6298 74.4092 78.5078 74.3316C78.3859 74.254 78.2085 74.2097 77.9757 74.2097C77.5101 74.2097 77.1554 74.387 76.8893 74.7528C76.6344 75.1076 76.5013 75.5954 76.5013 76.194C76.5013 76.8924 76.6787 77.4577 77.0224 77.9012C77.366 78.3446 77.887 78.5663 78.5854 78.5663C79.0843 78.5663 79.5055 78.4333 79.8492 78.1561H79.8603C79.8824 78.1561 79.9046 78.1672 79.9268 78.1894C79.949 78.2115 79.949 78.2337 79.9379 78.2559C79.6496 78.5109 79.3614 78.6993 79.0621 78.8213C78.7739 78.9432 78.4524 78.9986 78.0977 78.9986C77.5545 78.9875 77.1 78.8656 76.7341 78.6328Z" fill="#213634"/>
<path d="M83.0755 78.6438C82.7097 78.411 82.4215 78.0895 82.233 77.6904C82.0335 77.2914 81.9337 76.859 81.9337 76.3823C81.9337 75.8502 82.0667 75.3957 82.3217 75.0188C82.5767 74.6419 82.9203 74.3648 83.3194 74.1763C83.7296 73.9879 84.1397 73.8992 84.561 73.8992C85.0488 73.8992 85.47 74.0211 85.8358 74.2539C86.2017 74.4978 86.4788 74.8082 86.6673 75.1962C86.8557 75.5842 86.9555 76.0054 86.9555 76.4378C86.9555 76.9477 86.8335 77.4022 86.6007 77.7791C86.3569 78.1671 86.0465 78.4553 85.6363 78.666C85.2372 78.8766 84.8049 78.9874 84.3282 78.9874C83.8626 78.9985 83.4414 78.8766 83.0755 78.6438ZM85.7472 78.278C85.991 77.9565 86.113 77.4576 86.113 76.7925C86.113 76.2826 86.0243 75.817 85.858 75.4179C85.6917 75.0077 85.4589 74.6973 85.1596 74.4756C84.8603 74.2539 84.5277 74.132 84.1398 74.132C83.6963 74.132 83.3527 74.2872 83.1088 74.6197C82.8649 74.9412 82.743 75.4068 82.743 76.0054C82.743 76.5043 82.8206 76.9699 82.9869 77.3911C83.1531 77.8124 83.3859 78.1449 83.6852 78.3888C83.9846 78.6327 84.3171 78.7547 84.6829 78.7547C85.1485 78.7657 85.5033 78.5995 85.7472 78.278Z" fill="#213634"/>
<path d="M96.9327 74.1322C96.9327 74.1766 96.9216 74.2098 96.8994 74.2098C96.6999 74.2098 96.5336 74.2763 96.3895 74.4094C96.2454 74.5424 96.1013 74.7752 95.9682 75.1188L94.4384 78.8325C94.4273 78.8658 94.383 78.8769 94.3054 78.8769C94.2278 78.8769 94.1724 78.8547 94.1724 78.8325L92.7756 75.8283L91.5118 78.8325C91.5008 78.8658 91.4564 78.8769 91.3788 78.8769C91.3012 78.8769 91.2458 78.8547 91.2458 78.8325L89.5164 75.0967C89.3502 74.7419 89.2171 74.5091 89.1063 74.3872C88.9954 74.2763 88.8513 74.2098 88.6961 74.2098C88.6739 74.2098 88.6628 74.1877 88.6628 74.1322C88.6628 74.0879 88.6739 74.0546 88.6961 74.0546C88.8624 74.0546 88.9843 74.0546 89.0841 74.0657L89.5497 74.0768L90.2924 74.0657C90.4144 74.0546 90.5917 74.0546 90.8245 74.0546C90.8467 74.0546 90.8578 74.0768 90.8578 74.1322C90.8578 74.1766 90.8467 74.2098 90.8245 74.2098C90.5917 74.2098 90.4144 74.232 90.2924 74.2763C90.1705 74.3207 90.104 74.3983 90.104 74.5091C90.104 74.5646 90.1261 74.6311 90.1483 74.6976L91.656 77.8791L92.6315 75.529L92.4319 75.0967C92.2657 74.7419 92.1326 74.5091 92.0218 74.3872C91.9109 74.2763 91.7779 74.2098 91.6227 74.2098C91.6116 74.2098 91.6005 74.1877 91.6005 74.1322C91.6005 74.0879 91.6116 74.0546 91.6227 74.0546C91.789 74.0546 91.9109 74.0546 91.9885 74.0657L92.443 74.0768L93.2523 74.0657C93.3631 74.0546 93.5294 74.0546 93.7179 74.0546C93.74 74.0546 93.7511 74.0768 93.7511 74.1322C93.7511 74.1766 93.74 74.2098 93.7179 74.2098C93.2523 74.2098 93.0084 74.3096 93.0084 74.5091C93.0084 74.5646 93.0195 74.6311 93.0527 74.6976L94.5493 77.9013L95.7133 75.0523C95.7687 74.9304 95.802 74.8084 95.802 74.6976C95.802 74.5313 95.7244 74.4094 95.5692 74.3318C95.414 74.2542 95.159 74.2098 94.8264 74.2098C94.8043 74.2098 94.8043 74.1877 94.8043 74.1322C94.8043 74.0879 94.8153 74.0546 94.8264 74.0546C95.0481 74.0546 95.2144 74.0546 95.3364 74.0657L96.0791 74.0768L96.5225 74.0657C96.6001 74.0546 96.7331 74.0546 96.9105 74.0546C96.9105 74.0546 96.9327 74.0768 96.9327 74.1322Z" fill="#213634"/>
<path d="M104.349 78.7657C104.349 78.8101 104.338 78.8433 104.316 78.8433C104.127 78.8433 103.983 78.8433 103.872 78.8323L103.207 78.8212L102.531 78.8323C102.42 78.8433 102.276 78.8433 102.087 78.8433C102.065 78.8433 102.054 78.8212 102.054 78.7657C102.054 78.7214 102.065 78.6881 102.087 78.6881C102.309 78.6881 102.475 78.666 102.586 78.6216C102.697 78.5773 102.764 78.4997 102.808 78.3777C102.841 78.2669 102.863 78.0784 102.863 77.8345V75.8281C102.863 75.3403 102.775 74.9856 102.586 74.7528C102.398 74.52 102.11 74.4091 101.722 74.4091C101.467 74.4091 101.212 74.4756 100.946 74.6086C100.691 74.7417 100.447 74.9301 100.236 75.174V77.8345C100.236 78.0784 100.258 78.2669 100.291 78.3777C100.325 78.4886 100.402 78.5773 100.513 78.6216C100.624 78.666 100.79 78.6881 101.012 78.6881C101.034 78.6881 101.045 78.7103 101.045 78.7657C101.045 78.8101 101.034 78.8433 101.012 78.8433C100.824 78.8433 100.668 78.8433 100.569 78.8323L99.9035 78.8212L99.2273 78.8323C99.1164 78.8433 98.9723 78.8433 98.7838 78.8433C98.7617 78.8433 98.7506 78.8212 98.7506 78.7657C98.7506 78.7214 98.7617 78.6881 98.7838 78.6881C99.0055 78.6881 99.1718 78.666 99.2827 78.6216C99.3935 78.5773 99.4601 78.4997 99.5044 78.3777C99.5377 78.2669 99.5598 78.0784 99.5598 77.8345V75.3846C99.5598 75.1075 99.5266 74.908 99.4601 74.7749C99.3935 74.653 99.2827 74.5865 99.1275 74.5865C98.9945 74.5865 98.7727 74.653 98.4624 74.7749H98.4402C98.4069 74.7749 98.3847 74.7528 98.3737 74.7195C98.3626 74.6862 98.3737 74.653 98.4069 74.6419L99.837 73.9657L99.9146 73.9546C99.9922 73.9546 100.07 74.0544 100.147 74.2428C100.225 74.4313 100.269 74.6752 100.269 74.9745C100.58 74.6086 100.89 74.3426 101.2 74.1652C101.511 73.9879 101.832 73.8992 102.165 73.8992C102.631 73.8992 102.985 74.0322 103.229 74.2872C103.473 74.5421 103.595 74.919 103.595 75.4179V77.8456C103.595 78.0895 103.617 78.278 103.65 78.3888C103.684 78.4997 103.761 78.5884 103.872 78.6327C103.983 78.6771 104.149 78.6992 104.371 78.6992C104.338 78.6881 104.349 78.7103 104.349 78.7657Z" fill="#213634"/>
<path d="M106.455 78.7659C106.455 78.7216 106.466 78.6883 106.477 78.6883C106.699 78.6883 106.865 78.6662 106.976 78.6218C107.087 78.5775 107.165 78.4888 107.209 78.378C107.253 78.256 107.276 78.0786 107.276 77.8348V75.5179C107.276 75.2186 107.242 75.0079 107.187 74.8749C107.132 74.7419 107.021 74.6754 106.865 74.6754C106.721 74.6754 106.533 74.7308 106.311 74.8527H106.3C106.267 74.8527 106.245 74.8306 106.223 74.7862C106.2 74.7419 106.211 74.7197 106.234 74.6975L107.841 73.9548L107.885 73.9437C107.908 73.9437 107.919 73.9548 107.952 73.977C107.974 73.9991 107.985 74.0213 107.985 74.0435C107.985 74.0989 107.985 74.2652 107.974 74.5423C107.963 74.8195 107.963 75.141 107.963 75.5068V77.8348C107.963 78.0786 107.985 78.2671 108.029 78.378C108.074 78.4888 108.14 78.5775 108.251 78.6218C108.362 78.6662 108.528 78.6883 108.75 78.6883C108.772 78.6883 108.783 78.7105 108.783 78.7659C108.783 78.8103 108.772 78.8435 108.75 78.8435C108.562 78.8435 108.406 78.8435 108.296 78.8325L107.63 78.8214L106.965 78.8325C106.854 78.8435 106.688 78.8435 106.5 78.8435C106.466 78.8325 106.455 78.8103 106.455 78.7659ZM107.12 72.3585C107.021 72.2698 106.976 72.1368 106.976 71.9705C106.976 71.8042 107.021 71.6823 107.12 71.5825C107.209 71.4938 107.353 71.4495 107.52 71.4495C107.686 71.4495 107.808 71.4938 107.908 71.5825C108.007 71.6712 108.041 71.8042 108.041 71.9705C108.041 72.1368 107.996 72.2587 107.908 72.3585C107.819 72.4583 107.686 72.4915 107.52 72.4915C107.342 72.5026 107.209 72.4472 107.12 72.3585Z" fill="#213634"/>
<path d="M115.578 78.1675C115.612 78.1675 115.634 78.1897 115.645 78.2229C115.656 78.2562 115.645 78.2894 115.612 78.3005L114.337 78.9102C114.303 78.9213 114.27 78.9324 114.237 78.9324C114.126 78.9324 114.037 78.8548 113.949 78.7107C113.86 78.5666 113.816 78.367 113.782 78.1231L113.139 78.5444C112.929 78.6774 112.751 78.7772 112.596 78.8326C112.441 78.8881 112.275 78.9213 112.097 78.9213C111.787 78.9213 111.554 78.8437 111.388 78.6774C111.222 78.5222 111.133 78.3116 111.133 78.0677C111.133 77.8238 111.233 77.6021 111.432 77.4248C111.632 77.2474 111.953 77.07 112.408 76.9037L113.771 76.3938V75.5513C113.771 74.6312 113.516 74.1656 112.995 74.1656C112.718 74.1656 112.508 74.2543 112.352 74.4427C112.208 74.6312 112.108 74.8418 112.064 75.0857C112.042 75.2298 111.998 75.3517 111.931 75.4515C111.865 75.5513 111.754 75.5956 111.599 75.5956C111.466 75.5956 111.366 75.5624 111.299 75.4848C111.233 75.4072 111.199 75.3185 111.199 75.2298C111.199 75.0303 111.332 74.8307 111.587 74.6312C111.842 74.4316 112.153 74.2654 112.508 74.1323C112.862 73.9993 113.184 73.9328 113.461 73.9328C113.793 73.9328 114.06 74.0437 114.226 74.2543C114.392 74.4649 114.481 74.7753 114.481 75.1855V77.5024C114.481 77.7906 114.514 78.0012 114.592 78.1342C114.669 78.2673 114.791 78.3338 114.957 78.3338C115.113 78.3338 115.312 78.2784 115.567 78.1786H115.578V78.1675ZM113.771 77.9569V77.8904V76.5712L112.618 77.0146C112.386 77.1033 112.219 77.2141 112.12 77.325C112.02 77.4469 111.964 77.591 111.964 77.7573C111.964 77.9569 112.031 78.1232 112.153 78.2562C112.286 78.3892 112.452 78.4557 112.652 78.4557C112.818 78.4557 113.017 78.3892 113.25 78.2562L113.771 77.9569Z" fill="#213634"/>
<path d="M127.706 78.766C127.706 78.8104 127.695 78.8436 127.673 78.8436C127.485 78.8436 127.329 78.8436 127.218 78.8325L126.542 78.8215L125.866 78.8325C125.755 78.8436 125.6 78.8436 125.412 78.8436C125.389 78.8436 125.378 78.8215 125.378 78.766C125.378 78.7217 125.389 78.6884 125.412 78.6884C125.633 78.6884 125.8 78.6663 125.91 78.6219C126.021 78.5776 126.088 78.5 126.132 78.378C126.165 78.2672 126.188 78.0787 126.188 77.8348V74.4371V71.0394C125.966 70.6957 125.722 70.4408 125.467 70.2856C125.212 70.1304 124.924 70.0528 124.602 70.0528C124.081 70.0528 123.682 70.3188 123.405 70.8398C123.128 71.3609 122.984 72.2255 122.984 73.4117V74.1988C123.35 74.1877 123.871 74.1544 124.569 74.0768C124.591 74.0768 124.613 74.1101 124.636 74.1766C124.658 74.2431 124.658 74.3096 124.658 74.3872C124.658 74.4648 124.647 74.5313 124.613 74.6089C124.58 74.6865 124.558 74.7087 124.536 74.6976C124.004 74.5424 123.483 74.4537 122.984 74.4205V77.8348C122.984 78.0898 123.017 78.2783 123.072 78.3891C123.128 78.5 123.239 78.5776 123.405 78.6219C123.571 78.6663 123.837 78.6884 124.192 78.6884C124.214 78.6884 124.225 78.7106 124.225 78.766C124.225 78.8104 124.214 78.8436 124.192 78.8436L123.405 78.8325C123.228 78.8215 122.973 78.8215 122.618 78.8215L121.92 78.8325C121.809 78.8436 121.642 78.8436 121.421 78.8436C121.399 78.8436 121.387 78.8215 121.387 78.766C121.387 78.7217 121.399 78.6884 121.421 78.6884C121.665 78.6884 121.853 78.6663 121.964 78.6219C122.075 78.5776 122.163 78.5 122.208 78.378C122.252 78.2672 122.274 78.0787 122.274 77.8348V75.0524C122.274 74.8417 122.252 74.6865 122.208 74.5979C122.163 74.5092 122.086 74.4537 121.964 74.4205C121.842 74.3872 121.642 74.3761 121.365 74.3761C121.343 74.3761 121.332 74.354 121.332 74.2985C121.332 74.2431 121.343 74.2209 121.365 74.2209C121.709 74.2209 121.931 74.1766 122.053 74.099C122.175 74.0214 122.241 73.8773 122.241 73.6556C122.285 72.3142 122.529 71.3498 122.973 70.7512C123.416 70.1525 124.059 69.8532 124.902 69.8532C125.256 69.8532 125.578 69.8976 125.877 69.9863C126.165 70.0749 126.42 70.1858 126.62 70.341C126.72 70.1969 126.764 70.0195 126.764 69.831C126.764 69.8089 126.786 69.7978 126.842 69.7978C126.886 69.7978 126.919 69.8089 126.919 69.831V77.8348C126.919 78.0787 126.941 78.2672 126.986 78.378C127.03 78.4889 127.097 78.5776 127.207 78.6219C127.318 78.6663 127.485 78.6884 127.706 78.6884C127.695 78.6884 127.706 78.7106 127.706 78.766Z" fill="#213634"/>
<path d="M130.843 78.6438C130.477 78.411 130.189 78.0895 130.001 77.6904C129.801 77.2914 129.701 76.859 129.701 76.3823C129.701 75.8502 129.834 75.3957 130.089 75.0188C130.344 74.6419 130.688 74.3648 131.087 74.1763C131.497 73.9879 131.907 73.8992 132.329 73.8992C132.816 73.8992 133.238 74.0211 133.603 74.2539C133.969 74.4978 134.246 74.8082 134.435 75.1962C134.623 75.5842 134.723 76.0054 134.723 76.4378C134.723 76.9477 134.601 77.4022 134.368 77.7791C134.124 78.1671 133.814 78.4553 133.404 78.666C133.005 78.8766 132.572 78.9874 132.096 78.9874C131.63 78.9985 131.209 78.8766 130.843 78.6438ZM133.526 78.278C133.77 77.9565 133.892 77.4576 133.892 76.7925C133.892 76.2826 133.803 75.817 133.637 75.4179C133.47 75.0077 133.238 74.6973 132.938 74.4756C132.639 74.2539 132.306 74.132 131.918 74.132C131.475 74.132 131.131 74.2872 130.887 74.6197C130.644 74.9412 130.522 75.4068 130.522 76.0054C130.522 76.5043 130.599 76.9699 130.766 77.3911C130.932 77.8124 131.165 78.1449 131.464 78.3888C131.763 78.6327 132.096 78.7547 132.462 78.7547C132.927 78.7657 133.282 78.5995 133.526 78.278Z" fill="#213634"/>
<path d="M140.344 74.0991C140.51 74.1989 140.587 74.3208 140.587 74.4539C140.587 74.5647 140.554 74.6534 140.488 74.731C140.421 74.8086 140.31 74.8419 140.188 74.8419C140.111 74.8419 140.044 74.8308 140 74.7975C139.944 74.7643 139.878 74.731 139.811 74.6645C139.734 74.598 139.667 74.5536 139.601 74.5204C139.534 74.4871 139.457 74.476 139.368 74.476C139.257 74.476 139.146 74.5204 139.024 74.6091C138.902 74.6978 138.714 74.8973 138.459 75.1855V77.835C138.459 78.0789 138.492 78.2673 138.548 78.3782C138.614 78.489 138.725 78.5777 138.891 78.622C139.058 78.6664 139.313 78.6886 139.656 78.6886C139.69 78.6886 139.701 78.7107 139.701 78.7662C139.701 78.8105 139.678 78.8438 139.656 78.8438C139.39 78.8438 139.18 78.8438 139.024 78.8327L138.104 78.8216L137.428 78.8327C137.317 78.8438 137.173 78.8438 136.985 78.8438C136.962 78.8438 136.951 78.8216 136.951 78.7662C136.951 78.7218 136.962 78.6886 136.985 78.6886C137.206 78.6886 137.373 78.6664 137.483 78.622C137.594 78.5777 137.661 78.5001 137.705 78.3782C137.738 78.2673 137.761 78.0789 137.761 77.835V75.3851C137.761 75.1079 137.727 74.9084 137.661 74.7754C137.594 74.6534 137.483 74.5869 137.328 74.5869C137.195 74.5869 136.974 74.6534 136.663 74.7754H136.641C136.608 74.7754 136.586 74.7532 136.574 74.7199C136.563 74.6867 136.574 74.6534 136.608 74.6423L138.038 73.9661L138.115 73.955C138.193 73.955 138.271 74.0548 138.348 74.2432C138.426 74.4317 138.47 74.6756 138.47 74.9749V74.986C138.803 74.5869 139.08 74.3208 139.279 74.1767C139.479 74.0326 139.667 73.955 139.845 73.955C140.022 73.955 140.177 73.9994 140.344 74.0991Z" fill="#213634"/>
<path d="M147.539 74.1321C147.539 74.1764 147.528 74.2097 147.505 74.2097C147.295 74.2097 147.117 74.2873 146.973 74.4314C146.829 74.5755 146.685 74.8194 146.552 75.163L145.044 79.1871C144.734 79.9853 144.457 80.6171 144.18 81.0606C143.914 81.5151 143.636 81.8365 143.348 82.025C143.06 82.2135 142.739 82.3132 142.362 82.3132C142.184 82.3132 142.029 82.2689 141.907 82.1913C141.785 82.1026 141.73 81.9917 141.73 81.8365C141.73 81.7257 141.763 81.6259 141.841 81.5594C141.918 81.4929 142.007 81.4596 142.118 81.4596C142.229 81.4596 142.317 81.4707 142.395 81.4929C142.472 81.5151 142.55 81.5594 142.628 81.6148C142.639 81.6259 142.694 81.6481 142.772 81.6924C142.849 81.7368 142.949 81.7589 143.06 81.7589C143.26 81.7589 143.448 81.6703 143.625 81.504C143.803 81.3377 143.991 81.0384 144.191 80.6282C144.39 80.2181 144.634 79.6527 144.9 78.9432L143.016 75.0965C142.827 74.7307 142.683 74.4979 142.583 74.387C142.484 74.2762 142.351 74.2208 142.195 74.2208C142.184 74.2208 142.173 74.1986 142.173 74.1432C142.173 74.0988 142.184 74.0656 142.195 74.0656L142.617 74.0766C142.716 74.0877 142.849 74.0877 143.027 74.0877L143.814 74.0766C143.925 74.0656 144.091 74.0656 144.302 74.0656C144.313 74.0656 144.324 74.0877 144.324 74.1432C144.324 74.1875 144.313 74.2208 144.302 74.2208C143.825 74.2208 143.581 74.3205 143.581 74.509C143.581 74.5533 143.603 74.6198 143.648 74.7085L145.277 78.0674L146.264 75.2185C146.33 75.0189 146.364 74.8637 146.364 74.7529C146.364 74.5644 146.286 74.4314 146.142 74.3538C145.998 74.2762 145.754 74.2318 145.41 74.2318C145.399 74.2318 145.388 74.2097 145.388 74.1542C145.388 74.1099 145.399 74.0766 145.41 74.0766C145.632 74.0766 145.798 74.0766 145.92 74.0877L146.663 74.0988L147.106 74.0877C147.184 74.0766 147.317 74.0766 147.494 74.0766C147.527 74.0545 147.539 74.0766 147.539 74.1321Z" fill="#213634"/>
<path d="M150.32 75.4956C150.509 75.6619 150.786 75.8392 151.152 76.0388C151.44 76.1829 151.662 76.3159 151.828 76.4268C151.983 76.5376 152.127 76.6707 152.238 76.848C152.349 77.0254 152.415 77.236 152.415 77.4799C152.415 77.9012 152.26 78.2559 151.95 78.5441C151.639 78.8323 151.207 78.9765 150.675 78.9765C150.243 78.9765 149.844 78.8545 149.489 78.6106C149.444 78.5774 149.411 78.533 149.411 78.4665L149.389 77.5021C149.389 77.4799 149.411 77.4577 149.456 77.4577C149.5 77.4577 149.522 77.4688 149.533 77.491C149.688 77.9012 149.899 78.2115 150.143 78.4333C150.398 78.6439 150.686 78.7547 151.019 78.7547C151.296 78.7547 151.495 78.6882 151.639 78.5552C151.784 78.4222 151.839 78.2337 151.828 77.9788C151.817 77.6684 151.728 77.4245 151.54 77.2582C151.351 77.0919 151.074 76.9145 150.708 76.7372C150.431 76.6041 150.22 76.4822 150.054 76.3824C149.899 76.2716 149.755 76.1385 149.644 75.9612C149.533 75.7838 149.478 75.5732 149.478 75.3182C149.478 74.8748 149.644 74.5311 149.977 74.2983C150.309 74.0655 150.708 73.9436 151.163 73.9436C151.495 73.9436 151.795 74.0101 152.061 74.1321C152.105 74.1542 152.138 74.1653 152.149 74.1875C152.16 74.2097 152.172 74.2318 152.172 74.2651C152.172 74.4314 152.172 74.5533 152.16 74.6531L152.149 75.1741C152.149 75.1852 152.127 75.1963 152.072 75.1963C152.027 75.1963 151.994 75.1852 151.994 75.1741C151.994 74.9967 151.928 74.8415 151.795 74.6863C151.662 74.5311 151.495 74.4092 151.296 74.3205C151.096 74.2318 150.897 74.1875 150.697 74.1875C150.487 74.1875 150.331 74.2429 150.209 74.3538C150.087 74.4646 150.032 74.6309 150.032 74.8526C150.032 75.0965 150.132 75.3293 150.32 75.4956Z" fill="#213634"/>
<path d="M158.059 78.1897C158.092 78.1897 158.114 78.2118 158.136 78.2451C158.158 78.2784 158.147 78.3116 158.125 78.3227C157.815 78.5666 157.549 78.7329 157.305 78.8326C157.061 78.9324 156.806 78.9767 156.54 78.9767C156.196 78.9767 155.908 78.8992 155.686 78.744C155.465 78.5888 155.354 78.3227 155.354 77.968V75.0635C155.354 74.8529 155.343 74.6977 155.309 74.609C155.276 74.5203 155.221 74.4538 155.143 74.4317C155.066 74.3984 154.921 74.3873 154.722 74.3873C154.689 74.3873 154.677 74.3651 154.677 74.3097C154.677 74.2543 154.689 74.2321 154.722 74.2321C155.054 74.221 155.32 74.1324 155.531 73.9661C155.742 73.7998 155.853 73.567 155.886 73.2898C155.886 73.2677 155.919 73.2566 155.986 73.2566C156.041 73.2566 156.074 73.2677 156.074 73.2898V74.21C156.484 74.1989 157.061 74.1656 157.793 74.088C157.804 74.088 157.826 74.1213 157.848 74.1767C157.87 74.2432 157.881 74.3097 157.881 74.3762C157.881 74.4428 157.87 74.5093 157.837 74.5758C157.804 74.6423 157.781 74.6755 157.748 74.6645C157.294 74.5536 156.739 74.4871 156.074 74.4649V77.5467C156.074 77.8904 156.163 78.1343 156.329 78.3005C156.496 78.4668 156.739 78.5444 157.05 78.5444C157.416 78.5444 157.748 78.4336 158.036 78.2008L158.059 78.1897Z" fill="#213634"/>
<path d="M164.998 74.1321C164.998 74.1764 164.987 74.2097 164.965 74.2097C164.755 74.2097 164.577 74.2873 164.433 74.4314C164.289 74.5755 164.145 74.8194 164.012 75.163L162.504 79.1871C162.194 79.9853 161.917 80.6171 161.639 81.0606C161.373 81.5151 161.096 81.8365 160.808 82.025C160.52 82.2135 160.198 82.3132 159.821 82.3132C159.644 82.3132 159.489 82.2689 159.367 82.1913C159.245 82.1026 159.19 81.9917 159.19 81.8365C159.19 81.7257 159.223 81.6259 159.3 81.5594C159.378 81.4929 159.467 81.4596 159.578 81.4596C159.688 81.4596 159.777 81.4707 159.855 81.4929C159.932 81.5151 160.01 81.5594 160.088 81.6148C160.099 81.6259 160.154 81.6481 160.232 81.6924C160.309 81.7368 160.409 81.7589 160.52 81.7589C160.719 81.7589 160.908 81.6703 161.085 81.504C161.263 81.3377 161.451 81.0384 161.651 80.6282C161.85 80.2181 162.094 79.6527 162.36 78.9432L160.476 75.0965C160.287 74.7307 160.143 74.4979 160.043 74.387C159.943 74.2762 159.81 74.2208 159.655 74.2208C159.644 74.2208 159.633 74.1986 159.633 74.1432C159.633 74.0988 159.644 74.0656 159.655 74.0656L160.076 74.0766C160.176 74.0877 160.309 74.0877 160.487 74.0877L161.274 74.0766C161.385 74.0656 161.551 74.0656 161.761 74.0656C161.773 74.0656 161.784 74.0877 161.784 74.1432C161.784 74.1875 161.773 74.2208 161.761 74.2208C161.285 74.2208 161.041 74.3205 161.041 74.509C161.041 74.5533 161.063 74.6198 161.107 74.7085L162.737 78.0674L163.724 75.2185C163.79 75.0189 163.823 74.8637 163.823 74.7529C163.823 74.5644 163.746 74.4314 163.602 74.3538C163.458 74.2762 163.214 74.2318 162.87 74.2318C162.859 74.2318 162.848 74.2097 162.848 74.1542C162.848 74.1099 162.859 74.0766 162.87 74.0766C163.092 74.0766 163.258 74.0766 163.38 74.0877L164.123 74.0988L164.566 74.0877C164.644 74.0766 164.777 74.0766 164.954 74.0766C164.987 74.0545 164.998 74.0766 164.998 74.1321Z" fill="#213634"/>
<path d="M167.758 78.6328C167.392 78.4 167.126 78.0896 166.949 77.7238C166.772 77.358 166.694 76.9589 166.694 76.5487C166.694 76.0166 166.827 75.5621 167.093 75.163C167.359 74.7639 167.703 74.4646 168.113 74.2651C168.534 74.0545 168.956 73.9436 169.399 73.9436C169.765 73.9436 170.097 74.0212 170.397 74.1653C170.696 74.3094 170.851 74.4868 170.851 74.7085C170.851 74.8194 170.807 74.908 170.729 74.9856C170.652 75.0632 170.541 75.1076 170.419 75.1076C170.197 75.1076 170.009 74.9746 169.876 74.6974C169.765 74.5311 169.654 74.4092 169.532 74.3316C169.41 74.254 169.233 74.2097 169 74.2097C168.534 74.2097 168.18 74.387 167.913 74.7528C167.659 75.1076 167.526 75.5954 167.526 76.194C167.526 76.8924 167.703 77.4577 168.047 77.9012C168.39 78.3446 168.911 78.5663 169.61 78.5663C170.108 78.5663 170.53 78.4333 170.873 78.1561H170.884C170.907 78.1561 170.929 78.1672 170.951 78.1894C170.973 78.2115 170.973 78.2337 170.962 78.2559C170.674 78.5109 170.386 78.6993 170.086 78.8213C169.798 78.9432 169.477 78.9986 169.122 78.9986C168.568 78.9875 168.124 78.8656 167.758 78.6328Z" fill="#213634"/>
<path d="M176.05 74.3096C176.083 74.2541 176.061 74.2209 175.983 74.2209C175.352 74.2209 174.853 74.2541 174.498 74.3096C174.143 74.365 173.866 74.4758 173.667 74.6199C173.467 74.7751 173.323 75.0079 173.223 75.3183C173.223 75.3405 173.212 75.3405 173.179 75.3405C173.157 75.3405 173.134 75.3294 173.112 75.3183C173.09 75.3073 173.09 75.2962 173.09 75.2851L173.511 73.6888C173.522 73.6666 173.545 73.6666 173.589 73.6666C173.633 73.6666 173.655 73.6777 173.644 73.6999C173.633 73.722 173.633 73.7553 173.633 73.7996C173.633 73.8994 173.678 73.9659 173.766 73.9992C173.855 74.0324 174.01 74.0435 174.232 74.0435H176.859C176.892 74.0435 176.926 74.0546 176.948 74.0878C176.97 74.1211 176.981 74.1544 176.959 74.1876L174.043 78.5442C174.01 78.5997 174.032 78.6329 174.11 78.6329C174.919 78.6329 175.496 78.6108 175.839 78.5553C176.183 78.511 176.427 78.4001 176.582 78.2449C176.737 78.0787 176.881 77.8015 177.003 77.4135C177.014 77.4024 177.037 77.3913 177.081 77.3913C177.125 77.3913 177.147 77.4024 177.147 77.4135L177.125 78.6884C177.125 78.7216 177.114 78.7549 177.092 78.777C177.07 78.8103 177.048 78.8214 177.014 78.8214H173.19C173.157 78.8214 173.134 78.8103 173.112 78.777C173.09 78.7438 173.09 78.7105 173.101 78.6773L176.05 74.3096Z" fill="#213634"/>
<path d="M184.986 78.7657C184.986 78.8101 184.974 78.8433 184.952 78.8433C184.764 78.8433 184.62 78.8433 184.509 78.8323L183.844 78.8212L183.167 78.8323C183.057 78.8433 182.912 78.8433 182.724 78.8433C182.702 78.8433 182.691 78.8212 182.691 78.7657C182.691 78.7214 182.702 78.6881 182.724 78.6881C182.946 78.6881 183.112 78.666 183.223 78.6216C183.334 78.5773 183.4 78.4997 183.445 78.3777C183.478 78.2669 183.5 78.0784 183.5 77.8345V75.8281C183.5 75.3403 183.411 74.9856 183.223 74.7528C183.034 74.52 182.746 74.4091 182.358 74.4091C182.103 74.4091 181.848 74.4756 181.582 74.6086C181.327 74.7417 181.083 74.9301 180.873 75.174V77.8345C180.873 78.0784 180.895 78.2669 180.928 78.3777C180.961 78.4886 181.039 78.5773 181.15 78.6216C181.261 78.666 181.427 78.6881 181.649 78.6881C181.671 78.6881 181.682 78.7103 181.682 78.7657C181.682 78.8101 181.671 78.8433 181.649 78.8433C181.46 78.8433 181.305 78.8433 181.205 78.8323L180.54 78.8212L179.864 78.8323C179.753 78.8433 179.609 78.8433 179.421 78.8433C179.398 78.8433 179.387 78.8212 179.387 78.7657C179.387 78.7214 179.398 78.6881 179.421 78.6881C179.642 78.6881 179.809 78.666 179.919 78.6216C180.03 78.5773 180.097 78.4997 180.141 78.3777C180.174 78.2669 180.197 78.0784 180.197 77.8345V75.3846C180.197 75.1075 180.163 74.908 180.097 74.7749C180.03 74.653 179.919 74.5865 179.764 74.5865C179.631 74.5865 179.409 74.653 179.099 74.7749H179.077C179.044 74.7749 179.021 74.7528 179.01 74.7195C178.999 74.6862 179.01 74.653 179.044 74.6419L180.474 73.9657L180.551 73.9546C180.629 73.9546 180.706 74.0544 180.784 74.2428C180.862 74.4313 180.906 74.6752 180.906 74.9745C181.216 74.6086 181.527 74.3426 181.837 74.1652C182.148 73.9879 182.469 73.8992 182.802 73.8992C183.267 73.8992 183.622 74.0322 183.866 74.2872C184.11 74.5421 184.232 74.919 184.232 75.4179V77.8456C184.232 78.0895 184.254 78.278 184.287 78.3888C184.32 78.4997 184.398 78.5884 184.509 78.6327C184.62 78.6771 184.786 78.6992 185.008 78.6992C184.974 78.6881 184.986 78.7103 184.986 78.7657Z" fill="#213634"/>
<path d="M191.603 78.1675C191.637 78.1675 191.659 78.1897 191.67 78.2229C191.681 78.2562 191.67 78.2894 191.637 78.3005L190.362 78.9102C190.328 78.9213 190.295 78.9324 190.262 78.9324C190.151 78.9324 190.062 78.8548 189.974 78.7107C189.885 78.5666 189.841 78.367 189.807 78.1231L189.164 78.5444C188.954 78.6774 188.776 78.7772 188.621 78.8326C188.466 78.8881 188.3 78.9213 188.122 78.9213C187.812 78.9213 187.579 78.8437 187.413 78.6774C187.247 78.5222 187.158 78.3116 187.158 78.0677C187.158 77.8238 187.258 77.6021 187.457 77.4248C187.657 77.2474 187.978 77.07 188.433 76.9037L189.796 76.3938V75.5513C189.796 74.6312 189.541 74.1656 189.02 74.1656C188.743 74.1656 188.533 74.2543 188.377 74.4427C188.233 74.6312 188.134 74.8418 188.089 75.0857C188.067 75.2298 188.023 75.3517 187.956 75.4515C187.89 75.5513 187.779 75.5956 187.624 75.5956C187.491 75.5956 187.391 75.5624 187.324 75.4848C187.258 75.4072 187.224 75.3185 187.224 75.2298C187.224 75.0303 187.358 74.8307 187.612 74.6312C187.867 74.4316 188.178 74.2654 188.533 74.1323C188.887 73.9993 189.209 73.9328 189.486 73.9328C189.819 73.9328 190.085 74.0437 190.251 74.2543C190.417 74.4649 190.506 74.7753 190.506 75.1855V77.5024C190.506 77.7906 190.539 78.0012 190.617 78.1342C190.694 78.2673 190.816 78.3338 190.982 78.3338C191.138 78.3338 191.337 78.2784 191.592 78.1786H191.603V78.1675ZM189.785 77.9569V77.8904V76.5712L188.632 77.0146C188.4 77.1033 188.233 77.2141 188.133 77.325C188.034 77.4469 187.978 77.591 187.978 77.7573C187.978 77.9569 188.045 78.1232 188.167 78.2562C188.3 78.3892 188.466 78.4557 188.666 78.4557C188.832 78.4557 189.031 78.3892 189.264 78.2562L189.785 77.9569Z" fill="#213634"/>
</svg>
