<svg width="512" height="458" viewBox="0 0 512 458" fill="none" xmlns="http://www.w3.org/2000/svg">
<g opacity="0.5">
<path opacity="0.5" d="M99.2193 69.1172C96.6808 64.3863 83.9305 36.2894 51.1027 25.443C38.5831 21.289 0.274436 0 0.274436 0C0.274436 0 -1.45638 30.4623 17.698 46.9051C43.0255 68.4826 99.2193 69.1172 99.2193 69.1172Z" fill="#DFDCD9"/>
</g>
<g opacity="0.5">
<path opacity="0.5" d="M147.566 81.3475C147.566 81.3475 119.007 79.9629 100.199 90.4054C92.4104 94.7325 63.2173 105.521 63.2173 105.521C63.2173 105.521 81.737 114.464 100.026 110.598C124.027 105.521 147.566 81.3475 147.566 81.3475Z" fill="#DFDCD9"/>
</g>
<g opacity="0.5">
<path opacity="0.5" d="M216.219 99.6945C216.219 99.6945 216.276 64.8474 199.603 48.5778C192.68 41.8276 174.737 13.3846 174.737 13.3846C174.737 13.3846 162.794 40.7314 169.775 60.2319C178.949 85.848 216.219 99.6945 216.219 99.6945Z" fill="#DFDCD9"/>
</g>
<g opacity="0.5">
<path opacity="0.5" d="M302.705 159.927C302.705 159.927 268.896 142.388 238.261 151.503C225.626 155.254 182.009 159.581 182.009 159.581C182.009 159.581 197.933 185.6 223.087 188.139C256.146 191.543 302.705 159.927 302.705 159.927Z" fill="#DFDCD9"/>
</g>
<g opacity="0.5">
<path opacity="0.5" d="M356.188 208.794C356.188 208.794 329.302 213.524 315.975 229.275C310.494 235.794 287.705 254.199 287.705 254.199C287.705 254.199 308.244 260.43 323.591 252.237C343.899 241.333 356.188 208.794 356.188 208.794Z" fill="#DFDCD9"/>
</g>
<g opacity="0.5">
<path opacity="0.5" d="M329.128 176.37C329.82 172.908 336.339 153.061 324.339 131.599C320.185 124.157 310.954 96.3484 310.954 96.3484C310.954 96.3484 297.858 113.368 300.165 130.676C303.223 153.465 329.128 176.37 329.128 176.37Z" fill="#DFDCD9"/>
</g>
<path opacity="0.5" d="M509.076 457.973L508.845 457.281C508.499 456.3 473.017 355.22 398.881 257.948C330.398 168.119 213.799 62.8279 47.5256 72.0013L46.7755 72.0589L46.6602 69.5204L47.3525 69.4627C121.316 65.4241 191.702 83.3092 256.666 122.541C308.59 153.926 357.111 198.985 400.9 256.391C475.267 353.951 510.922 455.434 511.268 456.415L511.499 457.107L509.076 457.973Z" fill="#505F5D"/>
</svg>
