<svg width="1291" height="458" viewBox="0 0 1291 458" fill="none" xmlns="http://www.w3.org/2000/svg">
<g opacity="0.5">
<path opacity="0.5" d="M304.219 69.1172C301.681 64.3863 288.93 36.2894 256.103 25.443C243.583 21.289 205.274 0 205.274 0C205.274 0 203.544 30.4623 222.698 46.9051C248.026 68.4825 304.219 69.1172 304.219 69.1172Z" fill="#DFDCD9"/>
</g>
<g opacity="0.5">
<path opacity="0.5" d="M352.566 81.3475C352.566 81.3475 324.007 79.9629 305.199 90.4054C297.41 94.7325 268.217 105.521 268.217 105.521C268.217 105.521 286.737 114.464 305.026 110.598C329.027 105.521 352.566 81.3475 352.566 81.3475Z" fill="#DFDCD9"/>
</g>
<g opacity="0.5">
<path opacity="0.5" d="M421.219 99.6945C421.219 99.6945 421.276 64.8474 404.603 48.5778C397.68 41.8276 379.737 13.3846 379.737 13.3846C379.737 13.3846 367.794 40.7314 374.775 60.2319C383.949 85.848 421.219 99.6945 421.219 99.6945Z" fill="#DFDCD9"/>
</g>
<g opacity="0.5">
<path opacity="0.5" d="M507.705 159.927C507.705 159.927 473.896 142.388 443.261 151.503C430.626 155.254 387.009 159.581 387.009 159.581C387.009 159.581 402.933 185.6 428.087 188.139C461.146 191.543 507.705 159.927 507.705 159.927Z" fill="#DFDCD9"/>
</g>
<g opacity="0.5">
<path opacity="0.5" d="M561.188 208.794C561.188 208.794 534.302 213.524 520.975 229.275C515.494 235.794 492.705 254.199 492.705 254.199C492.705 254.199 513.244 260.43 528.591 252.237C548.899 241.333 561.188 208.794 561.188 208.794Z" fill="#DFDCD9"/>
</g>
<g opacity="0.5">
<path opacity="0.5" d="M534.128 176.37C534.82 172.908 541.339 153.061 529.339 131.599C525.185 124.157 515.954 96.3484 515.954 96.3484C515.954 96.3484 502.858 113.368 505.165 130.676C508.223 153.465 534.128 176.37 534.128 176.37Z" fill="#DFDCD9"/>
</g>
<path opacity="0.5" d="M714.076 457.973L713.845 457.281C713.499 456.3 678.017 355.22 603.881 257.948C535.398 168.119 418.799 62.8279 252.526 72.0013L251.776 72.0589L251.66 69.5204L252.352 69.4627C326.316 65.4241 396.702 83.3092 461.666 122.541C513.59 153.926 562.111 198.985 605.9 256.391C680.267 353.951 715.922 455.434 716.268 456.415L716.499 457.107L714.076 457.973Z" fill="#505F5D"/>
<path d="M59.5977 251.429H15.0581V282.584C15.0581 285.526 15.1735 287.372 15.4619 288.18C15.7504 288.988 16.2697 289.68 17.0197 290.199C17.7697 290.776 19.0967 291.007 20.9429 291.007V291.815H0V291.007C3.80779 291.238 5.71169 289.391 5.71169 285.468V220.274C5.71169 216.582 5.42322 214.216 4.78859 213.236C4.15395 212.255 2.59622 211.678 0 211.563V210.755H20.9429V211.563C18.6351 211.736 17.0774 212.139 16.2697 212.889C15.4619 213.639 15.0581 215.14 15.0581 217.39V249.121H59.5977V220.101C59.5977 216.813 59.3092 214.563 58.7323 213.351C58.1554 212.139 56.5976 211.563 53.9437 211.563V210.755H74.6558V211.563C73.0404 211.563 71.8288 211.736 71.0211 212.139C70.2134 212.543 69.6941 213.12 69.4057 213.928C69.1172 214.736 68.9441 216.813 68.9441 220.101V282.295C68.9441 285.468 69.1172 287.488 69.4057 288.238C69.6941 289.045 70.2134 289.68 70.9057 290.199C71.6557 290.718 72.8673 290.949 74.6558 290.949V291.757H53.9437V290.949C56.1938 290.949 57.6938 290.488 58.4438 289.565C59.1939 288.641 59.5977 286.161 59.5977 282.122V251.429Z" fill="#DFDCD9"/>
<path d="M135.174 209.601C146.54 209.601 155.828 213.063 163.098 219.986C170.31 226.909 173.944 235.564 173.944 245.891C173.944 259.218 169.733 270.411 161.367 279.526C153.001 288.642 141.924 293.2 128.078 293.2C116.827 293.2 107.654 289.507 100.5 282.18C93.3461 274.853 89.769 266.026 89.769 255.756C89.769 248.833 91.4999 241.679 94.9615 234.41C98.4231 227.083 103.616 221.14 110.539 216.525C117.462 211.909 125.655 209.601 135.174 209.601ZM134.828 288.873C140.424 288.873 145.905 287.373 151.328 284.372C156.752 281.372 161.021 277.276 164.136 272.026C167.252 266.776 168.81 261.41 168.81 255.872C168.81 248.025 166.733 240.871 162.521 234.467C158.309 228.063 152.886 223.044 146.194 219.409C139.501 215.775 133.328 213.986 127.616 213.986C119.597 213.986 112.27 216.986 105.75 223.044C99.2308 229.102 95.9423 236.602 95.9423 245.602C95.9423 257.083 99.9232 267.18 107.943 275.891C115.904 284.488 124.905 288.873 134.828 288.873Z" fill="#DFDCD9"/>
<path d="M188.947 211.62V210.813H211.967C217.794 210.813 222.006 210.928 224.602 211.216C227.198 211.447 229.852 212.313 232.621 213.755C235.333 215.197 237.41 217.159 238.795 219.64C240.179 222.121 240.872 225.178 240.872 228.755C240.872 232.852 239.66 236.775 237.179 240.525C234.698 244.275 231.179 247.39 226.679 249.987L232.391 258.756C233.66 260.949 236.949 265.795 242.314 273.237C247.68 280.68 251.834 285.238 254.776 286.853C257.718 288.468 260.545 289.276 263.315 289.276C266.026 289.276 269.142 288.238 272.661 286.161L273.007 287.257C268.622 290.834 262.911 292.622 255.872 292.622C251.199 292.622 247.16 291.238 243.756 288.468C240.352 285.699 234.525 278.084 226.16 265.622C226.102 265.564 226.044 265.449 226.044 265.391L217.91 252.871L210.698 253.102H204.121V284.084C204.121 286.565 204.467 288.353 205.102 289.449C205.736 290.545 207.352 291.065 209.832 291.065V291.872H188.947V291.065C191.543 290.949 193.159 290.43 193.794 289.392C194.428 288.353 194.774 286.391 194.774 283.334V218.947C194.774 216.87 194.486 215.14 193.967 213.755C193.39 212.37 191.717 211.678 188.947 211.62ZM204.121 212.947V250.967H212.602C219.294 250.967 224.256 249.41 227.487 246.237C230.718 243.063 232.333 238.909 232.333 233.775C232.333 228.813 230.718 224.082 227.544 219.582C224.371 215.14 218.775 212.89 210.756 212.89H204.121V212.947Z" fill="#DFDCD9"/>
<path d="M330.528 207.986L326.663 217.794H325.855C326.028 217.217 326.086 216.409 326.086 215.428C326.086 214.563 325.797 214.043 325.163 213.813C324.528 213.582 323.605 213.467 322.278 213.467H301.104V282.815C301.104 285.699 301.335 287.603 301.797 288.699C302.258 289.738 302.893 290.43 303.643 290.661C304.451 290.949 305.72 291.065 307.451 291.065V291.872H285.469V291.065C288.239 290.892 289.969 290.372 290.662 289.449C291.354 288.584 291.7 286.738 291.7 283.968V213.467H271.45C269.373 213.467 268.046 213.582 267.411 213.813C266.776 214.043 266.488 214.62 266.488 215.601C266.488 216.063 266.661 216.813 266.95 217.794H266.142L262.276 207.986H263.084C263.719 209.313 264.411 210.12 265.046 210.409C265.68 210.697 267.065 210.813 269.2 210.813H323.028C325.163 210.813 326.663 210.697 327.586 210.409C328.509 210.12 329.201 209.313 329.663 207.986H330.528Z" fill="#DFDCD9"/>
<path d="M417.184 291.872H401.838V279.353C394.049 288.065 384.702 292.392 373.914 292.392C365.894 292.392 359.49 290.141 354.817 285.641C350.144 281.141 347.778 274.91 347.778 266.949V218.37C347.778 215.428 347.432 213.582 346.74 212.774C346.048 211.966 344.432 211.563 341.836 211.563V210.755H363.356V211.563C361.106 211.563 359.49 211.909 358.567 212.659C357.644 213.409 357.182 215.082 357.182 217.736V262.275C357.182 271.622 359.375 278.257 363.702 282.237C368.087 286.218 373.048 288.238 378.587 288.238C387.356 288.238 395.145 284.314 401.895 276.41V221.544C401.895 216.755 401.491 213.87 400.626 213.005C399.76 212.139 398.434 211.678 396.645 211.678H395.895V210.87H417.242V211.678C414.588 211.851 412.915 212.255 412.28 213.005C411.588 213.755 411.242 215.14 411.242 217.159V283.161C411.242 285.757 411.357 287.488 411.645 288.295C411.876 289.103 412.395 289.795 413.203 290.315C414.011 290.834 415.338 291.122 417.242 291.122V291.872H417.184Z" fill="#DFDCD9"/>
<path d="M471.99 211.851L475.856 222.005L475.163 222.121C475.163 222.063 474.125 221.025 472.106 218.89C470.086 216.755 467.721 215.14 465.125 213.986C462.471 212.832 459.528 212.255 456.24 212.255C450.701 212.255 446.316 213.813 443.028 217.044C439.739 220.275 438.182 224.025 438.182 228.525C438.182 231.525 438.932 234.063 440.489 236.314C441.989 238.564 445.22 240.583 450.009 242.544C458.317 245.371 464.028 247.448 467.086 248.891C470.144 250.333 473.086 252.699 475.971 256.045C478.798 259.391 480.24 263.718 480.24 269.026C480.24 271.218 480.01 273.353 479.49 275.315C478.971 277.334 478.163 279.238 477.01 281.084C475.856 282.93 474.529 284.603 472.913 286.161C471.298 287.719 469.682 288.815 468.067 289.623C466.452 290.43 463.798 291.007 460.278 291.411C456.759 291.815 454.394 291.988 453.24 291.988H431.604V268.449H432.412C432.47 276.238 434.316 281.719 437.893 284.776C441.47 287.892 447.066 289.392 454.682 289.392C461.605 289.392 466.798 287.776 470.375 284.488C473.952 281.199 475.74 277.276 475.74 272.718C475.74 269.949 475.106 267.526 473.894 265.564C472.625 263.603 470.894 261.872 468.644 260.372C466.394 258.872 462.182 257.083 455.951 254.949C449.778 252.756 445.393 250.852 442.855 249.237C440.316 247.622 438.239 245.141 436.566 241.852C434.893 238.564 434.028 235.217 434.028 231.813C434.028 225.525 436.162 220.275 440.489 216.005C444.816 211.736 450.47 209.601 457.451 209.601C460.163 209.601 463.105 209.89 466.278 210.524C469.452 211.159 471.182 211.563 471.586 211.736C471.702 211.851 471.817 211.851 471.99 211.851Z" fill="#DFDCD9"/>
<path d="M533.555 211.62V210.813H570.767C580.229 210.813 587.729 211.563 593.21 213.063C598.691 214.563 603.48 216.87 607.576 220.101C611.672 223.274 614.903 227.371 617.268 232.332C619.634 237.294 620.845 242.833 620.845 249.006C620.845 254.891 619.634 260.718 617.153 266.429C614.672 272.141 611.326 277.045 607.057 281.199C602.787 285.353 598.287 288.18 593.614 289.68C588.941 291.18 581.614 291.988 571.748 291.988H533.67V291.18H534.651C536.612 291.18 537.939 290.372 538.574 288.757C539.209 287.141 539.497 284.257 539.497 280.103V220.967C539.497 216.582 539.093 213.928 538.343 213.005C537.536 212.082 535.92 211.62 533.555 211.62ZM561.19 212.543H548.728V275.43C548.728 279.411 549.421 282.353 550.747 284.257C552.074 286.161 554.382 287.603 557.613 288.468C560.844 289.334 565.171 289.738 570.652 289.738C585.825 289.738 596.499 285.815 602.672 278.026C608.787 270.237 611.903 261.699 611.903 252.525C611.903 241.679 607.691 232.332 599.268 224.371C590.845 216.467 578.152 212.543 561.19 212.543Z" fill="#DFDCD9"/>
<path d="M635.731 211.736V210.813H686.675V222.005H685.867C684.771 217.851 683.848 215.428 683.098 214.678C682.348 213.928 680.501 213.582 677.559 213.582H650.789V249.987H675.597C678.078 249.987 679.636 249.756 680.271 249.294C680.905 248.833 681.251 248.14 681.309 247.275H682.117V254.948H681.309C681.136 253.91 680.674 253.16 680.04 252.814C679.348 252.467 678.078 252.237 676.29 252.237H650.789V277.276C650.789 281.026 651.135 283.795 651.828 285.468C652.52 287.141 653.616 288.18 655.174 288.584C656.732 288.988 658.982 289.218 662.097 289.218H676.405C680.963 289.218 683.848 289.045 685.117 288.757C686.386 288.468 687.482 287.834 688.348 286.911C689.213 285.988 689.905 283.968 690.367 280.795H691.175V291.93H635.731V291.122C637.577 291.007 639.02 290.661 640 290.026C640.981 289.449 641.443 287.834 641.443 285.353V219.813C641.443 216.87 641.212 214.736 640.693 213.524C640.173 212.37 638.5 211.736 635.731 211.736Z" fill="#DFDCD9"/>
<path d="M700.633 291.872V291.065C703.172 291.065 704.787 290.603 705.537 289.622C706.287 288.642 706.691 287.026 706.691 284.718V218.37C706.691 216.005 706.403 214.332 705.826 213.293C705.249 212.255 703.46 211.678 700.518 211.62V210.813H722.269V211.62C720.249 211.62 718.865 211.851 717.999 212.37C717.192 212.89 716.672 213.466 716.384 214.159C716.153 214.851 715.98 216.409 715.98 218.89V275.776C715.98 280.68 717.134 284.084 719.499 286.103C721.865 288.122 725.846 289.103 731.557 289.103H741.423C746.212 289.103 749.673 287.949 751.866 285.584C754.058 283.218 755.327 278.834 755.558 272.314H756.366V291.815H700.633V291.872Z" fill="#DFDCD9"/>
<path d="M792.771 210.813V211.62C791.732 211.505 790.521 211.678 789.194 212.14C787.867 212.601 787.117 213.236 786.886 214.043C786.655 214.909 786.54 216.87 786.54 220.044V282.238C786.54 285.584 786.655 287.661 786.944 288.411C787.232 289.161 787.752 289.795 788.559 290.257C789.367 290.719 790.752 291.007 792.771 291.007V291.815H771.136V291.007C773.847 291.007 775.521 290.488 776.213 289.449C776.847 288.411 777.194 286.045 777.194 282.295V220.794C777.194 216.928 776.847 214.447 776.097 213.236C775.347 212.024 773.732 211.505 771.136 211.678V210.87H792.771V210.813Z" fill="#DFDCD9"/>
<path d="M877.641 214.909L880.699 223.506H879.891C872.045 215.717 862.814 211.794 852.141 211.794C841.121 211.794 832.179 215.082 825.371 221.659C818.563 228.236 815.159 236.198 815.159 245.487C815.159 251.256 816.659 257.891 819.717 265.334C822.717 272.834 827.505 278.949 834.083 283.796C840.602 288.642 848.506 291.007 857.795 291.007C863.91 291.007 869.853 290.026 875.737 288.065C881.565 286.103 885.949 283.449 888.834 280.161L889.526 280.392L883.872 289.103C874.699 291.065 868.756 292.277 865.987 292.623C863.218 292.969 859.583 293.2 855.025 293.2C838.063 293.2 825.89 289.276 818.563 281.372C811.236 273.468 807.601 264.064 807.601 253.102C807.601 245.718 809.505 238.564 813.255 231.698C817.005 224.832 822.428 219.467 829.525 215.544C836.621 211.621 844.698 209.601 853.814 209.601C858.372 209.601 862.295 210.005 865.641 210.813C868.987 211.621 871.699 212.486 873.949 213.351L877.584 214.736C877.526 214.794 877.584 214.851 877.641 214.909Z" fill="#DFDCD9"/>
<path d="M922.695 210.813V211.62C921.657 211.505 920.445 211.678 919.118 212.14C917.791 212.601 917.041 213.236 916.81 214.043C916.58 214.909 916.464 216.87 916.464 220.044V282.238C916.464 285.584 916.58 287.661 916.868 288.411C917.157 289.161 917.676 289.795 918.484 290.257C919.291 290.719 920.676 291.007 922.695 291.007V291.815H901.06V291.007C903.772 291.007 905.445 290.488 906.137 289.449C906.772 288.411 907.118 286.045 907.118 282.295V220.794C907.118 216.928 906.772 214.447 906.022 213.236C905.272 212.024 903.656 211.505 901.06 211.678V210.87H922.695V210.813Z" fill="#DFDCD9"/>
<path d="M980.622 254.545H956.852L944.563 285.123C943.697 287.315 943.294 288.7 943.294 289.219C943.294 290.43 944.217 291.065 946.005 291.065V291.873H933.947V291.065C935.563 291.065 936.89 290.661 938.044 289.853C939.197 289.046 940.351 287.026 941.678 283.738L971.044 209.601H972.487L1001.39 281.199C1001.39 281.545 1002.14 283.334 1003.64 286.392C1005.14 289.507 1007.39 291.065 1010.45 291.065V291.873H991.526V291.065C993.256 291.065 994.122 290.373 994.122 289.046C994.122 288.123 993.718 286.68 992.853 284.661C992.68 284.488 992.564 284.257 992.449 283.969C992.391 283.622 992.333 283.392 992.276 283.392L980.622 254.545ZM957.602 252.295H979.525L968.564 224.659L957.602 252.295Z" fill="#DFDCD9"/>
<path d="M1022.22 211.62V210.813H1045.24C1051.07 210.813 1055.28 210.928 1057.87 211.216C1060.47 211.447 1063.12 212.313 1065.89 213.755C1068.6 215.197 1070.68 217.159 1072.07 219.64C1073.45 222.121 1074.14 225.178 1074.14 228.755C1074.14 232.852 1072.93 236.775 1070.45 240.525C1067.97 244.275 1064.45 247.39 1059.95 249.987L1065.66 258.756C1066.93 260.949 1070.22 265.795 1075.59 273.237C1080.95 280.68 1085.11 285.238 1088.05 286.853C1090.99 288.468 1093.82 289.276 1096.59 289.276C1099.3 289.276 1102.41 288.238 1105.93 286.161L1106.28 287.257C1101.89 290.834 1096.18 292.622 1089.14 292.622C1084.47 292.622 1080.43 291.238 1077.03 288.468C1073.62 285.699 1067.8 278.084 1059.43 265.622C1059.37 265.564 1059.32 265.449 1059.32 265.391L1051.18 252.871L1043.97 253.102H1037.39V284.084C1037.39 286.565 1037.74 288.353 1038.37 289.449C1039.01 290.545 1040.62 291.065 1043.1 291.065V291.872H1022.16V291.065C1024.76 290.949 1026.37 290.43 1027.01 289.392C1027.64 288.353 1027.99 286.391 1027.99 283.334V218.947C1027.99 216.87 1027.7 215.14 1027.18 213.755C1026.66 212.37 1024.99 211.678 1022.22 211.62ZM1037.39 212.947V250.967H1045.87C1052.57 250.967 1057.53 249.41 1060.76 246.237C1063.99 243.063 1065.6 238.909 1065.6 233.775C1065.6 228.813 1063.99 224.082 1060.82 219.582C1057.64 215.14 1052.05 212.89 1044.03 212.89H1037.39V212.947Z" fill="#DFDCD9"/>
<path d="M1179.78 291.872H1164.43V279.353C1156.64 288.064 1147.3 292.391 1136.51 292.391C1128.49 292.391 1122.09 290.141 1117.41 285.641C1112.74 281.141 1110.37 274.91 1110.37 266.949V218.37C1110.37 215.428 1110.03 213.582 1109.34 212.774C1108.64 211.966 1107.03 211.562 1104.43 211.562V210.755H1125.95V211.562C1123.7 211.562 1122.09 211.909 1121.16 212.659C1120.24 213.409 1119.78 215.082 1119.78 217.736V262.275C1119.78 271.622 1121.97 278.257 1126.3 282.237C1130.68 286.218 1135.64 288.238 1141.18 288.238C1149.95 288.238 1157.74 284.314 1164.49 276.41V221.543C1164.49 216.755 1164.09 213.87 1163.22 213.005C1162.36 212.139 1161.03 211.678 1159.24 211.678H1158.49V210.87H1179.84V211.678C1177.18 211.851 1175.51 212.255 1174.88 213.005C1174.18 213.755 1173.84 215.139 1173.84 217.159V283.16C1173.84 285.757 1173.95 287.488 1174.24 288.295C1174.47 289.103 1174.99 289.795 1175.8 290.315C1176.61 290.834 1177.93 291.122 1179.84 291.122V291.872H1179.78Z" fill="#DFDCD9"/>
<path d="M1269.78 210.813H1282.59V211.62C1278.26 211.851 1276.07 214.101 1276.07 218.37C1276.07 219.294 1276.19 220.563 1276.42 222.178L1284.96 283.622C1285.48 286.68 1286.05 288.642 1286.69 289.507C1287.32 290.372 1288.65 290.892 1290.67 291.065V291.872H1272.44V291.065C1274.86 291.122 1276.07 289.968 1276.07 287.545C1276.07 287.026 1275.96 285.93 1275.73 284.315L1267.42 224.774L1238.34 291.872H1237.76L1208.51 224.89L1200.32 284.776C1200.15 285.699 1200.09 286.738 1200.09 287.891C1200.09 290.026 1201.3 291.065 1203.78 291.065V291.872H1191.38V291.065C1193.22 291.065 1194.43 290.834 1195.01 290.372C1195.53 289.911 1195.93 289.161 1196.22 288.18C1196.51 287.199 1196.74 286.045 1196.86 284.776L1206.15 219.294C1204.65 215.659 1203.15 213.466 1201.59 212.716C1200.09 211.966 1198.65 211.62 1197.2 211.62V210.813H1212.49L1240.99 277.103L1269.78 210.813Z" fill="#DFDCD9"/>
<path d="M315.297 383.952C316.797 384.875 318.009 386.26 318.932 388.048C319.855 389.837 320.259 391.972 320.259 394.337C320.259 397.568 319.509 400.28 318.067 402.472C316.624 404.664 314.836 406.337 312.701 407.376C310.566 408.414 308.489 408.991 306.412 408.991C305.085 408.991 303.874 408.876 302.835 408.587C301.797 408.357 300.701 407.895 299.605 407.318V420.645C299.605 421.915 299.778 422.896 300.066 423.472C300.355 424.049 300.989 424.511 301.912 424.742C302.835 424.973 304.162 425.088 306.009 425.088C306.066 425.088 306.124 425.203 306.124 425.492C306.124 425.723 306.066 425.896 306.009 425.896C304.566 425.896 303.412 425.896 302.547 425.838L297.874 425.78L294.354 425.838C293.777 425.896 292.97 425.896 291.989 425.896C291.874 425.896 291.816 425.78 291.816 425.492C291.816 425.261 291.874 425.088 291.989 425.088C293.143 425.088 294.008 424.973 294.585 424.742C295.162 424.511 295.508 424.107 295.739 423.472C295.97 422.838 296.085 421.915 296.085 420.645V390.356C296.085 388.798 295.912 387.702 295.566 387.01C295.22 386.318 294.643 386.029 293.777 386.029C292.854 386.029 291.7 386.318 290.374 386.952L290.258 387.01C290.085 387.01 289.97 386.895 289.912 386.664C289.854 386.433 289.854 386.318 290.027 386.202L297.181 382.798C297.239 382.741 297.412 382.741 297.643 382.741C298.22 382.741 298.739 383.202 299.143 384.068C299.547 384.933 299.72 386.26 299.778 387.933C303.412 384.241 307.047 382.395 310.624 382.395C312.182 382.568 313.797 383.029 315.297 383.952ZM313.97 404.722C315.413 402.703 316.163 399.933 316.163 396.356C316.163 392.722 315.355 389.952 313.797 387.933C312.182 385.914 310.162 384.933 307.739 384.933C306.239 384.933 304.855 385.279 303.528 386.029C302.258 386.779 300.931 387.818 299.605 389.145V403.626C300.816 404.953 302.085 405.991 303.47 406.626C304.855 407.261 306.47 407.664 308.374 407.664C310.624 407.722 312.528 406.741 313.97 404.722Z" fill="#DFDCD9"/>
<path d="M349.624 383.606C350.49 384.125 350.894 384.76 350.894 385.452C350.894 386.029 350.721 386.491 350.374 386.894C350.028 387.298 349.451 387.471 348.817 387.471C348.413 387.471 348.067 387.414 347.836 387.241C347.547 387.068 347.201 386.894 346.855 386.548C346.451 386.202 346.105 385.971 345.759 385.798C345.413 385.625 345.009 385.568 344.547 385.568C343.97 385.568 343.393 385.798 342.759 386.26C342.124 386.721 341.143 387.76 339.816 389.26V403.049C339.816 404.318 339.989 405.299 340.278 405.876C340.624 406.453 341.201 406.914 342.066 407.145C342.932 407.376 344.259 407.491 346.047 407.491C346.22 407.491 346.278 407.607 346.278 407.895C346.278 408.126 346.163 408.299 346.047 408.299C344.663 408.299 343.566 408.299 342.759 408.241L337.97 408.183L334.451 408.241C333.874 408.299 333.124 408.299 332.143 408.299C332.028 408.299 331.97 408.183 331.97 407.895C331.97 407.664 332.028 407.491 332.143 407.491C333.297 407.491 334.162 407.376 334.739 407.145C335.316 406.914 335.662 406.51 335.893 405.876C336.066 405.299 336.182 404.318 336.182 403.049V390.298C336.182 388.856 336.009 387.818 335.662 387.125C335.316 386.491 334.739 386.144 333.932 386.144C333.239 386.144 332.085 386.491 330.47 387.125H330.355C330.182 387.125 330.066 387.01 330.008 386.837C329.951 386.664 330.008 386.491 330.182 386.433L337.624 382.914L338.028 382.856C338.432 382.856 338.836 383.375 339.239 384.356C339.643 385.337 339.874 386.606 339.874 388.164V388.221C341.605 386.144 343.047 384.76 344.086 384.01C345.124 383.26 346.105 382.856 347.028 382.856C347.951 382.856 348.817 383.087 349.624 383.606Z" fill="#DFDCD9"/>
<path d="M384.82 404.779C384.993 404.779 385.109 404.895 385.166 405.068C385.224 405.241 385.166 405.414 384.993 405.472L378.359 408.645C378.186 408.703 378.012 408.76 377.839 408.76C377.262 408.76 376.801 408.356 376.339 407.606C375.878 406.856 375.647 405.818 375.474 404.549L372.128 406.741C371.031 407.433 370.108 407.953 369.301 408.241C368.493 408.53 367.628 408.703 366.704 408.703C365.089 408.703 363.877 408.299 363.012 407.433C362.147 406.626 361.685 405.529 361.685 404.26C361.685 402.991 362.204 401.837 363.243 400.914C364.281 399.991 365.954 399.068 368.32 398.202L375.416 395.548V391.164C375.416 386.375 374.089 383.952 371.378 383.952C369.935 383.952 368.839 384.414 368.031 385.394C367.281 386.375 366.762 387.471 366.531 388.741C366.416 389.491 366.185 390.125 365.839 390.644C365.493 391.164 364.916 391.394 364.108 391.394C363.416 391.394 362.897 391.221 362.55 390.818C362.204 390.414 362.031 389.952 362.031 389.491C362.031 388.452 362.724 387.414 364.051 386.375C365.377 385.337 366.993 384.471 368.839 383.779C370.685 383.087 372.358 382.74 373.801 382.74C375.532 382.74 376.916 383.317 377.782 384.414C378.647 385.51 379.109 387.125 379.109 389.26V401.318C379.109 402.818 379.282 403.914 379.686 404.606C380.089 405.299 380.724 405.645 381.589 405.645C382.397 405.645 383.436 405.356 384.763 404.837H384.82V404.779ZM375.416 403.683V403.337V396.471L369.416 398.779C368.204 399.241 367.339 399.818 366.82 400.395C366.301 401.029 366.012 401.779 366.012 402.645C366.012 403.683 366.358 404.549 366.993 405.241C367.685 405.933 368.551 406.279 369.589 406.279C370.455 406.279 371.493 405.933 372.705 405.241L375.416 403.683Z" fill="#DFDCD9"/>
<path d="M399.355 407.203C397.452 405.991 396.067 404.376 395.144 402.472C394.221 400.568 393.817 398.491 393.817 396.356C393.817 393.587 394.509 391.221 395.894 389.144C397.278 387.067 399.067 385.51 401.202 384.471C403.394 383.375 405.586 382.798 407.894 382.798C409.798 382.798 411.529 383.202 413.087 383.952C414.644 384.702 415.452 385.625 415.452 386.779C415.452 387.356 415.221 387.817 414.817 388.221C414.414 388.625 413.837 388.856 413.202 388.856C412.048 388.856 411.067 388.164 410.375 386.721C409.798 385.856 409.221 385.221 408.586 384.817C407.952 384.413 407.029 384.183 405.817 384.183C403.394 384.183 401.548 385.106 400.163 387.01C398.836 388.856 398.144 391.394 398.144 394.51C398.144 398.145 399.067 401.087 400.856 403.395C402.644 405.703 405.356 406.856 408.99 406.856C411.587 406.856 413.779 406.164 415.567 404.722H415.625C415.741 404.722 415.856 404.779 415.971 404.895C416.087 405.01 416.087 405.126 416.029 405.241C414.529 406.568 413.029 407.549 411.471 408.183C409.971 408.818 408.298 409.106 406.452 409.106C403.625 409.049 401.259 408.414 399.355 407.203Z" fill="#DFDCD9"/>
<path d="M432.358 407.26C430.455 406.048 428.955 404.375 427.974 402.298C426.935 400.221 426.416 397.971 426.416 395.491C426.416 392.721 427.108 390.356 428.435 388.394C429.762 386.433 431.551 384.99 433.628 384.009C435.762 383.029 437.897 382.567 440.089 382.567C442.628 382.567 444.82 383.202 446.724 384.413C448.628 385.683 450.071 387.298 451.051 389.317C452.032 391.337 452.551 393.529 452.551 395.779C452.551 398.433 451.917 400.798 450.705 402.76C449.436 404.779 447.82 406.279 445.686 407.375C443.609 408.472 441.359 409.049 438.878 409.049C436.455 409.106 434.262 408.472 432.358 407.26ZM446.263 405.356C447.532 403.683 448.167 401.087 448.167 397.625C448.167 394.971 447.705 392.548 446.84 390.471C445.974 388.336 444.763 386.721 443.205 385.567C441.647 384.413 439.916 383.779 437.897 383.779C435.589 383.779 433.801 384.586 432.532 386.317C431.262 387.99 430.628 390.413 430.628 393.529C430.628 396.125 431.032 398.548 431.897 400.741C432.762 402.933 433.974 404.664 435.532 405.933C437.089 407.202 438.82 407.837 440.724 407.837C443.147 407.895 444.993 407.029 446.263 405.356Z" fill="#DFDCD9"/>
<path d="M504.477 383.779C504.477 384.01 504.419 384.183 504.304 384.183C503.265 384.183 502.4 384.529 501.65 385.221C500.9 385.913 500.15 387.125 499.457 388.913L491.495 408.241C491.438 408.414 491.207 408.472 490.803 408.472C490.399 408.472 490.111 408.356 490.111 408.241L482.841 392.606L476.264 408.241C476.207 408.414 475.976 408.472 475.572 408.472C475.168 408.472 474.88 408.356 474.88 408.241L465.879 388.798C465.014 386.952 464.322 385.74 463.745 385.106C463.168 384.529 462.418 384.183 461.61 384.183C461.495 384.183 461.437 384.067 461.437 383.779C461.437 383.548 461.495 383.375 461.61 383.375C462.476 383.375 463.11 383.375 463.629 383.433L466.053 383.49L469.918 383.433C470.553 383.375 471.476 383.375 472.687 383.375C472.803 383.375 472.86 383.49 472.86 383.779C472.86 384.01 472.803 384.183 472.687 384.183C471.476 384.183 470.553 384.298 469.918 384.529C469.283 384.76 468.937 385.163 468.937 385.74C468.937 386.029 469.053 386.375 469.168 386.721L477.014 403.279L482.091 391.048L481.053 388.798C480.188 386.952 479.495 385.74 478.918 385.106C478.341 384.529 477.649 384.183 476.841 384.183C476.784 384.183 476.726 384.067 476.726 383.779C476.726 383.548 476.784 383.375 476.841 383.375C477.707 383.375 478.341 383.375 478.745 383.433L481.111 383.49L485.322 383.433C485.899 383.375 486.765 383.375 487.745 383.375C487.861 383.375 487.918 383.49 487.918 383.779C487.918 384.01 487.861 384.183 487.745 384.183C485.322 384.183 484.053 384.702 484.053 385.74C484.053 386.029 484.111 386.375 484.284 386.721L492.072 403.395L498.13 388.567C498.419 387.933 498.592 387.298 498.592 386.721C498.592 385.856 498.188 385.221 497.38 384.817C496.573 384.413 495.246 384.183 493.515 384.183C493.399 384.183 493.399 384.067 493.399 383.779C493.399 383.548 493.457 383.375 493.515 383.375C494.669 383.375 495.534 383.375 496.169 383.433L500.034 383.49L502.342 383.433C502.746 383.375 503.438 383.375 504.361 383.375C504.361 383.375 504.477 383.49 504.477 383.779Z" fill="#DFDCD9"/>
<path d="M543.073 407.895C543.073 408.125 543.015 408.299 542.9 408.299C541.919 408.299 541.169 408.299 540.592 408.241L537.13 408.183L533.611 408.241C533.034 408.299 532.284 408.299 531.303 408.299C531.188 408.299 531.13 408.183 531.13 407.895C531.13 407.664 531.188 407.491 531.303 407.491C532.457 407.491 533.322 407.375 533.899 407.145C534.476 406.914 534.822 406.51 535.053 405.875C535.226 405.298 535.342 404.318 535.342 403.048V392.606C535.342 390.067 534.88 388.221 533.899 387.01C532.919 385.798 531.419 385.221 529.399 385.221C528.072 385.221 526.745 385.567 525.361 386.26C524.034 386.952 522.764 387.933 521.668 389.202V403.048C521.668 404.318 521.784 405.298 521.957 405.875C522.13 406.452 522.534 406.914 523.111 407.145C523.688 407.375 524.553 407.491 525.707 407.491C525.822 407.491 525.88 407.606 525.88 407.895C525.88 408.125 525.822 408.299 525.707 408.299C524.726 408.299 523.918 408.299 523.399 408.241L519.937 408.183L516.418 408.241C515.841 408.299 515.091 408.299 514.11 408.299C513.995 408.299 513.937 408.183 513.937 407.895C513.937 407.664 513.995 407.491 514.11 407.491C515.264 407.491 516.13 407.375 516.707 407.145C517.284 406.914 517.63 406.51 517.861 405.875C518.034 405.298 518.149 404.318 518.149 403.048V390.298C518.149 388.856 517.976 387.817 517.63 387.125C517.284 386.49 516.707 386.144 515.899 386.144C515.207 386.144 514.053 386.49 512.437 387.125H512.322C512.149 387.125 512.033 387.01 511.976 386.836C511.918 386.663 511.976 386.49 512.149 386.433L519.591 382.913L519.995 382.856C520.399 382.856 520.803 383.375 521.207 384.356C521.611 385.336 521.841 386.606 521.841 388.163C523.457 386.26 525.072 384.875 526.688 383.952C528.303 383.029 529.976 382.567 531.707 382.567C534.13 382.567 535.976 383.259 537.246 384.586C538.515 385.913 539.15 387.875 539.15 390.471V403.106C539.15 404.375 539.265 405.356 539.438 405.933C539.611 406.51 540.015 406.972 540.592 407.202C541.169 407.433 542.034 407.548 543.188 407.548C543.015 407.491 543.073 407.606 543.073 407.895Z" fill="#DFDCD9"/>
<path d="M554.036 407.895C554.036 407.664 554.094 407.491 554.152 407.491C555.305 407.491 556.171 407.376 556.748 407.145C557.325 406.914 557.729 406.453 557.959 405.876C558.19 405.241 558.306 404.318 558.306 403.049V390.991C558.306 389.433 558.132 388.337 557.844 387.644C557.555 386.952 556.979 386.606 556.171 386.606C555.421 386.606 554.44 386.894 553.286 387.529H553.228C553.055 387.529 552.94 387.414 552.825 387.183C552.709 386.952 552.767 386.837 552.882 386.721L561.248 382.856L561.479 382.798C561.594 382.798 561.652 382.856 561.825 382.971C561.94 383.087 561.998 383.202 561.998 383.317C561.998 383.606 561.998 384.471 561.94 385.914C561.883 387.356 561.883 389.029 561.883 390.933V403.049C561.883 404.318 561.998 405.299 562.229 405.876C562.459 406.453 562.806 406.914 563.383 407.145C563.96 407.376 564.825 407.491 565.979 407.491C566.094 407.491 566.152 407.606 566.152 407.895C566.152 408.126 566.094 408.299 565.979 408.299C564.998 408.299 564.19 408.299 563.613 408.241L560.152 408.183L556.69 408.241C556.113 408.299 555.248 408.299 554.267 408.299C554.094 408.241 554.036 408.126 554.036 407.895ZM557.498 374.548C556.979 374.086 556.748 373.394 556.748 372.529C556.748 371.663 556.979 371.029 557.498 370.509C557.959 370.048 558.709 369.817 559.575 369.817C560.44 369.817 561.075 370.048 561.594 370.509C562.113 370.971 562.286 371.663 562.286 372.529C562.286 373.394 562.056 374.029 561.594 374.548C561.132 375.067 560.44 375.24 559.575 375.24C558.652 375.298 557.959 375.009 557.498 374.548Z" fill="#DFDCD9"/>
<path d="M601.516 404.779C601.689 404.779 601.804 404.895 601.862 405.068C601.919 405.241 601.862 405.414 601.689 405.472L595.054 408.645C594.881 408.703 594.708 408.76 594.535 408.76C593.958 408.76 593.496 408.356 593.035 407.606C592.573 406.856 592.342 405.818 592.169 404.549L588.823 406.741C587.727 407.433 586.804 407.953 585.996 408.241C585.188 408.53 584.323 408.703 583.4 408.703C581.784 408.703 580.573 408.299 579.707 407.433C578.842 406.626 578.38 405.529 578.38 404.26C578.38 402.991 578.9 401.837 579.938 400.914C580.977 399.991 582.65 399.068 585.015 398.202L592.111 395.548V391.164C592.111 386.375 590.785 383.952 588.073 383.952C586.631 383.952 585.534 384.414 584.727 385.394C583.977 386.375 583.457 387.471 583.227 388.741C583.111 389.491 582.88 390.125 582.534 390.644C582.188 391.164 581.611 391.394 580.804 391.394C580.111 391.394 579.592 391.221 579.246 390.818C578.9 390.414 578.727 389.952 578.727 389.491C578.727 388.452 579.419 387.414 580.746 386.375C582.073 385.337 583.688 384.471 585.534 383.779C587.381 383.087 589.054 382.74 590.496 382.74C592.227 382.74 593.612 383.317 594.477 384.414C595.342 385.51 595.804 387.125 595.804 389.26V401.318C595.804 402.818 595.977 403.914 596.381 404.606C596.785 405.299 597.419 405.645 598.285 405.645C599.092 405.645 600.131 405.356 601.458 404.837H601.516V404.779ZM592.111 403.683V403.337V396.471L586.111 398.779C584.9 399.241 584.034 399.818 583.515 400.395C582.996 401.029 582.707 401.779 582.707 402.645C582.707 403.683 583.054 404.549 583.688 405.241C584.381 405.933 585.246 406.279 586.284 406.279C587.15 406.279 588.188 405.933 589.4 405.241L592.111 403.683Z" fill="#DFDCD9"/>
<path d="M664.634 407.895C664.634 408.126 664.577 408.299 664.461 408.299C663.481 408.299 662.673 408.299 662.096 408.241L658.577 408.183L655.057 408.241C654.48 408.299 653.673 408.299 652.692 408.299C652.576 408.299 652.519 408.183 652.519 407.895C652.519 407.664 652.576 407.491 652.692 407.491C653.846 407.491 654.711 407.376 655.288 407.145C655.865 406.914 656.211 406.51 656.442 405.876C656.615 405.299 656.73 404.318 656.73 403.049V385.366V367.682C655.576 365.894 654.307 364.567 652.98 363.759C651.653 362.952 650.153 362.548 648.48 362.548C645.769 362.548 643.692 363.932 642.249 366.644C640.807 369.356 640.057 373.856 640.057 380.029V384.125C641.961 384.067 644.672 383.894 648.307 383.491C648.422 383.491 648.538 383.664 648.653 384.01C648.769 384.356 648.769 384.702 648.769 385.106C648.769 385.51 648.711 385.856 648.538 386.26C648.365 386.664 648.249 386.779 648.134 386.721C645.365 385.914 642.653 385.452 640.057 385.279V403.049C640.057 404.376 640.23 405.356 640.518 405.933C640.807 406.51 641.384 406.914 642.249 407.145C643.115 407.376 644.499 407.491 646.345 407.491C646.461 407.491 646.519 407.607 646.519 407.895C646.519 408.126 646.461 408.299 646.345 408.299L642.249 408.241C641.326 408.183 639.999 408.183 638.153 408.183L634.518 408.241C633.941 408.299 633.076 408.299 631.922 408.299C631.807 408.299 631.749 408.183 631.749 407.895C631.749 407.664 631.807 407.491 631.922 407.491C633.191 407.491 634.172 407.376 634.749 407.145C635.326 406.914 635.787 406.51 636.018 405.876C636.249 405.299 636.364 404.318 636.364 403.049V388.568C636.364 387.471 636.249 386.664 636.018 386.202C635.787 385.741 635.384 385.452 634.749 385.279C634.114 385.106 633.076 385.048 631.634 385.048C631.518 385.048 631.46 384.933 631.46 384.644C631.46 384.356 631.518 384.241 631.634 384.241C633.422 384.241 634.576 384.01 635.211 383.606C635.845 383.202 636.191 382.452 636.191 381.298C636.422 374.317 637.691 369.298 639.999 366.182C642.307 363.067 645.653 361.509 650.038 361.509C651.884 361.509 653.557 361.74 655.115 362.202C656.615 362.663 657.942 363.24 658.98 364.048C659.5 363.298 659.73 362.375 659.73 361.394C659.73 361.278 659.846 361.221 660.134 361.221C660.365 361.221 660.538 361.278 660.538 361.394V403.049C660.538 404.318 660.654 405.299 660.884 405.876C661.115 406.453 661.461 406.914 662.038 407.145C662.615 407.376 663.481 407.491 664.634 407.491C664.577 407.491 664.634 407.607 664.634 407.895Z" fill="#DFDCD9"/>
<path d="M680.96 407.26C679.056 406.048 677.556 404.375 676.575 402.298C675.537 400.221 675.018 397.971 675.018 395.491C675.018 392.721 675.71 390.356 677.037 388.394C678.364 386.433 680.152 384.99 682.229 384.009C684.364 383.029 686.499 382.567 688.691 382.567C691.23 382.567 693.422 383.202 695.326 384.413C697.23 385.683 698.672 387.298 699.653 389.317C700.634 391.337 701.153 393.529 701.153 395.779C701.153 398.433 700.518 400.798 699.307 402.76C698.037 404.779 696.422 406.279 694.287 407.375C692.21 408.472 689.96 409.049 687.479 409.049C685.056 409.106 682.864 408.472 680.96 407.26ZM694.922 405.356C696.191 403.683 696.826 401.087 696.826 397.625C696.826 394.971 696.364 392.548 695.499 390.471C694.633 388.336 693.422 386.721 691.864 385.567C690.307 384.413 688.576 383.779 686.556 383.779C684.249 383.779 682.46 384.586 681.191 386.317C679.922 387.99 679.287 390.413 679.287 393.529C679.287 396.125 679.691 398.548 680.556 400.741C681.422 402.933 682.633 404.664 684.191 405.933C685.749 407.202 687.479 407.837 689.383 407.837C691.807 407.895 693.653 407.029 694.922 405.356Z" fill="#DFDCD9"/>
<path d="M730.404 383.606C731.269 384.125 731.673 384.76 731.673 385.452C731.673 386.029 731.5 386.491 731.154 386.894C730.807 387.298 730.231 387.471 729.596 387.471C729.192 387.471 728.846 387.414 728.615 387.241C728.327 387.068 727.98 386.894 727.634 386.548C727.23 386.202 726.884 385.971 726.538 385.798C726.192 385.625 725.788 385.568 725.327 385.568C724.75 385.568 724.173 385.798 723.538 386.26C722.903 386.721 721.923 387.76 720.596 389.26V403.049C720.596 404.318 720.769 405.299 721.057 405.876C721.403 406.453 721.98 406.914 722.846 407.145C723.711 407.376 725.038 407.491 726.827 407.491C727 407.491 727.057 407.607 727.057 407.895C727.057 408.126 726.942 408.299 726.827 408.299C725.442 408.299 724.346 408.299 723.538 408.241L718.749 408.183L715.23 408.241C714.653 408.299 713.903 408.299 712.922 408.299C712.807 408.299 712.749 408.183 712.749 407.895C712.749 407.664 712.807 407.491 712.922 407.491C714.076 407.491 714.942 407.376 715.519 407.145C716.096 406.914 716.442 406.51 716.672 405.876C716.846 405.299 716.961 404.318 716.961 403.049V390.298C716.961 388.856 716.788 387.818 716.442 387.125C716.096 386.491 715.519 386.144 714.711 386.144C714.019 386.144 712.865 386.491 711.249 387.125H711.134C710.961 387.125 710.845 387.01 710.788 386.837C710.73 386.664 710.788 386.491 710.961 386.433L718.403 382.914L718.807 382.856C719.211 382.856 719.615 383.375 720.019 384.356C720.423 385.337 720.653 386.606 720.653 388.164V388.221C722.384 386.144 723.826 384.76 724.865 384.01C725.903 383.26 726.884 382.856 727.807 382.856C728.731 382.856 729.538 383.087 730.404 383.606Z" fill="#DFDCD9"/>
<path d="M767.85 383.779C767.85 384.01 767.792 384.183 767.677 384.183C766.58 384.183 765.657 384.587 764.907 385.337C764.157 386.087 763.407 387.356 762.715 389.144L754.869 410.087C753.253 414.241 751.811 417.53 750.369 419.838C748.984 422.203 747.542 423.876 746.041 424.857C744.541 425.838 742.868 426.357 740.907 426.357C739.984 426.357 739.176 426.126 738.541 425.722C737.907 425.261 737.618 424.684 737.618 423.876C737.618 423.299 737.791 422.78 738.195 422.434C738.599 422.088 739.061 421.915 739.637 421.915C740.214 421.915 740.676 421.972 741.08 422.088C741.484 422.203 741.887 422.434 742.291 422.722C742.349 422.78 742.638 422.895 743.041 423.126C743.445 423.357 743.964 423.472 744.541 423.472C745.58 423.472 746.561 423.011 747.484 422.145C748.407 421.28 749.388 419.722 750.426 417.587C751.465 415.453 752.734 412.51 754.119 408.818L744.311 388.798C743.33 386.894 742.58 385.683 742.061 385.106C741.541 384.529 740.849 384.24 740.041 384.24C739.984 384.24 739.926 384.125 739.926 383.837C739.926 383.606 739.984 383.433 740.041 383.433L742.234 383.49C742.753 383.548 743.445 383.548 744.368 383.548L748.465 383.49C749.042 383.433 749.907 383.433 751.003 383.433C751.061 383.433 751.118 383.548 751.118 383.837C751.118 384.067 751.061 384.24 751.003 384.24C748.522 384.24 747.253 384.76 747.253 385.74C747.253 385.971 747.368 386.317 747.599 386.779L756.08 404.26L761.215 389.433C761.561 388.394 761.734 387.587 761.734 387.01C761.734 386.029 761.33 385.337 760.58 384.933C759.83 384.529 758.561 384.298 756.773 384.298C756.715 384.298 756.657 384.183 756.657 383.894C756.657 383.663 756.715 383.49 756.773 383.49C757.926 383.49 758.792 383.49 759.426 383.548L763.292 383.606L765.6 383.548C766.004 383.49 766.696 383.49 767.619 383.49C767.792 383.375 767.85 383.49 767.85 383.779Z" fill="#DFDCD9"/>
<path d="M782.327 390.875C783.308 391.741 784.75 392.664 786.654 393.702C788.154 394.452 789.308 395.145 790.173 395.721C790.981 396.298 791.731 396.991 792.308 397.914C792.885 398.837 793.231 399.933 793.231 401.202C793.231 403.395 792.423 405.241 790.808 406.741C789.192 408.241 786.942 408.991 784.173 408.991C781.923 408.991 779.846 408.356 778 407.087C777.769 406.914 777.596 406.683 777.596 406.337L777.48 401.318C777.48 401.202 777.596 401.087 777.827 401.087C778.057 401.087 778.173 401.145 778.23 401.26C779.038 403.395 780.134 405.01 781.404 406.164C782.731 407.26 784.231 407.837 785.961 407.837C787.404 407.837 788.442 407.491 789.192 406.799C789.942 406.106 790.231 405.126 790.173 403.799C790.115 402.183 789.654 400.914 788.673 400.049C787.692 399.183 786.25 398.26 784.346 397.337C782.904 396.645 781.807 396.01 780.942 395.491C780.134 394.914 779.384 394.221 778.807 393.298C778.23 392.375 777.942 391.279 777.942 389.952C777.942 387.644 778.807 385.856 780.538 384.644C782.269 383.433 784.346 382.798 786.711 382.798C788.442 382.798 790 383.144 791.385 383.779C791.615 383.894 791.788 383.952 791.846 384.067C791.904 384.183 791.962 384.298 791.962 384.471C791.962 385.337 791.962 385.971 791.904 386.49L791.846 389.202C791.846 389.26 791.731 389.317 791.442 389.317C791.212 389.317 791.038 389.26 791.038 389.202C791.038 388.279 790.692 387.471 790 386.664C789.308 385.856 788.442 385.221 787.404 384.76C786.365 384.298 785.327 384.067 784.288 384.067C783.192 384.067 782.384 384.356 781.75 384.933C781.115 385.51 780.827 386.375 780.827 387.529C780.827 388.798 781.346 390.01 782.327 390.875Z" fill="#DFDCD9"/>
<path d="M822.601 404.895C822.774 404.895 822.889 405.01 823.004 405.183C823.12 405.356 823.062 405.53 822.947 405.587C821.331 406.856 819.947 407.722 818.677 408.241C817.408 408.76 816.081 408.991 814.697 408.991C812.908 408.991 811.408 408.587 810.254 407.78C809.1 406.972 808.523 405.587 808.523 403.741V388.625C808.523 387.529 808.466 386.721 808.292 386.26C808.119 385.798 807.831 385.452 807.427 385.337C807.023 385.164 806.273 385.106 805.235 385.106C805.062 385.106 805.004 384.99 805.004 384.702C805.004 384.414 805.062 384.298 805.235 384.298C806.966 384.24 808.35 383.779 809.446 382.914C810.543 382.048 811.12 380.837 811.293 379.394C811.293 379.279 811.466 379.221 811.812 379.221C812.1 379.221 812.273 379.279 812.273 379.394V384.183C814.408 384.125 817.408 383.952 821.216 383.548C821.274 383.548 821.389 383.721 821.504 384.01C821.62 384.356 821.678 384.702 821.678 385.048C821.678 385.394 821.62 385.741 821.447 386.087C821.274 386.433 821.158 386.606 820.985 386.548C818.62 385.971 815.735 385.625 812.273 385.51V401.549C812.273 403.337 812.735 404.606 813.6 405.472C814.466 406.337 815.735 406.741 817.35 406.741C819.254 406.741 820.985 406.164 822.485 404.953L822.601 404.895Z" fill="#DFDCD9"/>
<path d="M858.718 383.779C858.718 384.01 858.66 384.183 858.545 384.183C857.449 384.183 856.525 384.587 855.775 385.337C855.025 386.087 854.275 387.356 853.583 389.144L845.737 410.087C844.121 414.241 842.679 417.53 841.237 419.838C839.852 422.203 838.41 423.876 836.91 424.857C835.41 425.838 833.737 426.357 831.775 426.357C830.852 426.357 830.044 426.126 829.409 425.722C828.775 425.261 828.486 424.684 828.486 423.876C828.486 423.299 828.659 422.78 829.063 422.434C829.467 422.088 829.929 421.915 830.506 421.915C831.083 421.915 831.544 421.972 831.948 422.088C832.352 422.203 832.756 422.434 833.16 422.722C833.217 422.78 833.506 422.895 833.91 423.126C834.313 423.357 834.833 423.472 835.41 423.472C836.448 423.472 837.429 423.011 838.352 422.145C839.275 421.28 840.256 419.722 841.294 417.587C842.333 415.453 843.602 412.51 844.987 408.818L835.179 388.798C834.198 386.894 833.448 385.683 832.929 385.106C832.41 384.529 831.717 384.24 830.909 384.24C830.852 384.24 830.794 384.125 830.794 383.837C830.794 383.606 830.852 383.433 830.909 383.433L833.102 383.49C833.621 383.548 834.313 383.548 835.236 383.548L839.333 383.49C839.91 383.433 840.775 383.433 841.871 383.433C841.929 383.433 841.987 383.548 841.987 383.837C841.987 384.067 841.929 384.24 841.871 384.24C839.39 384.24 838.121 384.76 838.121 385.74C838.121 385.971 838.237 386.317 838.467 386.779L846.948 404.26L852.083 389.433C852.429 388.394 852.602 387.587 852.602 387.01C852.602 386.029 852.198 385.337 851.448 384.933C850.698 384.529 849.429 384.298 847.641 384.298C847.583 384.298 847.525 384.183 847.525 383.894C847.525 383.663 847.583 383.49 847.641 383.49C848.795 383.49 849.66 383.49 850.295 383.548L854.16 383.606L856.468 383.548C856.872 383.49 857.564 383.49 858.487 383.49C858.66 383.375 858.718 383.49 858.718 383.779Z" fill="#DFDCD9"/>
<path d="M873.082 407.203C871.178 405.991 869.793 404.376 868.87 402.472C867.947 400.568 867.543 398.491 867.543 396.356C867.543 393.587 868.235 391.221 869.62 389.144C871.005 387.067 872.793 385.51 874.928 384.471C877.12 383.375 879.313 382.798 881.62 382.798C883.524 382.798 885.255 383.202 886.813 383.952C888.37 384.702 889.178 385.625 889.178 386.779C889.178 387.356 888.947 387.817 888.544 388.221C888.14 388.625 887.563 388.856 886.928 388.856C885.774 388.856 884.793 388.164 884.101 386.721C883.524 385.856 882.947 385.221 882.313 384.817C881.678 384.413 880.755 384.183 879.543 384.183C877.12 384.183 875.274 385.106 873.889 387.01C872.562 388.856 871.87 391.394 871.87 394.51C871.87 398.145 872.793 401.087 874.582 403.395C876.37 405.703 879.082 406.856 882.716 406.856C885.313 406.856 887.505 406.164 889.293 404.722H889.351C889.467 404.722 889.582 404.779 889.697 404.895C889.813 405.01 889.813 405.126 889.755 405.241C888.255 406.568 886.755 407.549 885.197 408.183C883.697 408.818 882.024 409.106 880.178 409.106C877.293 409.049 874.985 408.414 873.082 407.203Z" fill="#DFDCD9"/>
<path d="M916.234 384.702C916.407 384.414 916.292 384.24 915.888 384.24C912.6 384.24 910.003 384.414 908.157 384.702C906.311 384.99 904.869 385.567 903.83 386.317C902.792 387.125 902.042 388.337 901.522 389.952C901.522 390.068 901.465 390.068 901.292 390.068C901.176 390.068 901.061 390.01 900.945 389.952C900.83 389.894 900.83 389.837 900.83 389.779L903.022 381.471C903.08 381.356 903.196 381.356 903.426 381.356C903.657 381.356 903.772 381.413 903.715 381.529C903.657 381.644 903.657 381.817 903.657 382.048C903.657 382.567 903.888 382.913 904.349 383.087C904.811 383.26 905.619 383.317 906.773 383.317H920.446C920.619 383.317 920.792 383.375 920.908 383.548C921.023 383.721 921.081 383.894 920.965 384.067L905.792 406.741C905.619 407.029 905.734 407.203 906.138 407.203C910.35 407.203 913.35 407.087 915.138 406.799C916.927 406.568 918.196 405.991 919.004 405.183C919.811 404.318 920.561 402.876 921.196 400.856C921.254 400.799 921.369 400.741 921.6 400.741C921.831 400.741 921.946 400.799 921.946 400.856L921.831 407.491C921.831 407.664 921.773 407.837 921.658 407.953C921.542 408.126 921.427 408.183 921.254 408.183H901.349C901.176 408.183 901.061 408.126 900.945 407.953C900.83 407.779 900.83 407.606 900.888 407.433L916.234 384.702Z" fill="#DFDCD9"/>
<path d="M962.739 407.895C962.739 408.125 962.681 408.298 962.566 408.298C961.585 408.298 960.835 408.298 960.258 408.241L956.796 408.183L953.277 408.241C952.7 408.298 951.95 408.298 950.969 408.298C950.854 408.298 950.796 408.183 950.796 407.895C950.796 407.664 950.854 407.491 950.969 407.491C952.123 407.491 952.988 407.375 953.565 407.145C954.142 406.914 954.489 406.51 954.719 405.875C954.892 405.298 955.008 404.318 955.008 403.048V392.606C955.008 390.067 954.546 388.221 953.565 387.009C952.585 385.798 951.085 385.221 949.065 385.221C947.738 385.221 946.411 385.567 945.027 386.259C943.7 386.952 942.43 387.933 941.334 389.202V403.048C941.334 404.318 941.45 405.298 941.623 405.875C941.796 406.452 942.2 406.914 942.777 407.145C943.354 407.375 944.219 407.491 945.373 407.491C945.488 407.491 945.546 407.606 945.546 407.895C945.546 408.125 945.488 408.298 945.373 408.298C944.392 408.298 943.584 408.298 943.065 408.241L939.603 408.183L936.084 408.241C935.507 408.298 934.757 408.298 933.776 408.298C933.661 408.298 933.603 408.183 933.603 407.895C933.603 407.664 933.661 407.491 933.776 407.491C934.93 407.491 935.796 407.375 936.373 407.145C936.95 406.914 937.296 406.51 937.526 405.875C937.7 405.298 937.815 404.318 937.815 403.048V390.298C937.815 388.856 937.642 387.817 937.296 387.125C936.95 386.49 936.373 386.144 935.565 386.144C934.873 386.144 933.719 386.49 932.103 387.125H931.988C931.815 387.125 931.699 387.009 931.642 386.836C931.584 386.663 931.642 386.49 931.815 386.433L939.257 382.913L939.661 382.855C940.065 382.855 940.469 383.375 940.873 384.356C941.277 385.336 941.507 386.606 941.507 388.163C943.123 386.259 944.738 384.875 946.354 383.952C947.969 383.029 949.642 382.567 951.373 382.567C953.796 382.567 955.642 383.259 956.912 384.586C958.181 385.913 958.815 387.875 958.815 390.471V403.106C958.815 404.375 958.931 405.356 959.104 405.933C959.277 406.51 959.681 406.972 960.258 407.202C960.835 407.433 961.7 407.548 962.854 407.548C962.681 407.491 962.739 407.606 962.739 407.895Z" fill="#DFDCD9"/>
<path d="M997.181 404.779C997.354 404.779 997.469 404.895 997.527 405.068C997.585 405.241 997.527 405.414 997.354 405.472L990.719 408.645C990.546 408.703 990.373 408.76 990.2 408.76C989.623 408.76 989.161 408.356 988.7 407.606C988.238 406.856 988.007 405.818 987.834 404.549L984.488 406.741C983.392 407.433 982.469 407.953 981.661 408.241C980.853 408.529 979.988 408.703 979.065 408.703C977.449 408.703 976.238 408.299 975.372 407.433C974.507 406.626 974.045 405.529 974.045 404.26C974.045 402.991 974.565 401.837 975.603 400.914C976.642 399.991 978.315 399.068 980.68 398.202L987.777 395.548V391.164C987.777 386.375 986.45 383.952 983.738 383.952C982.296 383.952 981.199 384.413 980.392 385.394C979.642 386.375 979.123 387.471 978.892 388.74C978.776 389.491 978.546 390.125 978.199 390.644C977.853 391.164 977.276 391.394 976.469 391.394C975.776 391.394 975.257 391.221 974.911 390.817C974.565 390.414 974.392 389.952 974.392 389.49C974.392 388.452 975.084 387.414 976.411 386.375C977.738 385.337 979.353 384.471 981.199 383.779C983.046 383.086 984.719 382.74 986.161 382.74C987.892 382.74 989.277 383.317 990.142 384.413C991.007 385.51 991.469 387.125 991.469 389.26V401.318C991.469 402.818 991.642 403.914 992.046 404.606C992.45 405.299 993.084 405.645 993.95 405.645C994.757 405.645 995.796 405.356 997.123 404.837H997.181V404.779ZM987.719 403.683V403.337V396.471L981.719 398.779C980.507 399.241 979.642 399.818 979.122 400.395C978.603 401.029 978.315 401.779 978.315 402.645C978.315 403.683 978.661 404.549 979.296 405.241C979.988 405.933 980.853 406.279 981.892 406.279C982.757 406.279 983.796 405.933 985.007 405.241L987.719 403.683Z" fill="#DFDCD9"/>
</svg>
