<svg width="114" height="45" viewBox="0 0 114 45" fill="none" xmlns="http://www.w3.org/2000/svg">
<g opacity="0.5">
<path opacity="0.5" d="M20.9218 19.8544C20.1967 19.4327 16.2062 16.7199 10.8738 18.1624C8.83867 18.7101 1.92224 19.2105 1.92224 19.2105C1.92224 19.2105 4.13497 23.5393 8.05913 24.0836C13.2348 24.7808 20.9218 19.8544 20.9218 19.8544Z" fill="#213634" fill-opacity="0.6"/>
</g>
<g opacity="0.5">
<path opacity="0.5" d="M28.5159 17.5466C28.5159 17.5466 24.5488 19.8881 22.8428 22.9752C22.1365 24.254 19.0558 28.3081 19.0558 28.3081C19.0558 28.3081 22.2708 27.8845 24.4318 25.7383C27.2675 22.9213 28.5159 17.5466 28.5159 17.5466Z" fill="#213634" fill-opacity="0.6"/>
</g>
<g opacity="0.5">
<path opacity="0.5" d="M39.1229 13.9884C39.1229 13.9884 36.2977 9.16369 32.6826 8.41486C31.182 8.10465 26.4028 5.7865 26.4028 5.7865C26.4028 5.7865 26.9842 10.644 29.5294 12.7125C32.8732 15.4293 39.1229 13.9884 39.1229 13.9884Z" fill="#213634" fill-opacity="0.6"/>
</g>
<g opacity="0.5">
<path opacity="0.5" d="M55.8171 14.9661C55.8171 14.9661 49.8552 15.5738 46.4485 19.5245C45.0427 21.1526 39.502 25.6012 39.502 25.6012C39.502 25.6012 43.7271 27.7295 47.3242 25.8484C52.057 23.3853 55.8171 14.9661 55.8171 14.9661Z" fill="#213634" fill-opacity="0.6"/>
</g>
<g opacity="0.5">
<path opacity="0.5" d="M67.0888 17.1815C67.0888 17.1815 63.8157 20.2282 63.2704 23.5755C63.0495 24.9577 61.4318 29.5127 61.4318 29.5127C61.4318 29.5127 64.7234 28.5342 66.1504 26.0425C68.0337 22.7366 67.0888 17.1815 67.0888 17.1815Z" fill="#213634" fill-opacity="0.6"/>
</g>
<g opacity="0.5">
<path opacity="0.5" d="M60.61 14.9156C60.4229 14.373 59.7023 11.032 56.292 9.13904C55.1104 8.4819 51.5641 5.45876 51.5641 5.45876C51.5641 5.45876 51.1454 9.00155 52.8778 11.1935C55.1614 14.078 60.61 14.9156 60.61 14.9156Z" fill="#213634" fill-opacity="0.6"/>
</g>
<path opacity="0.5" d="M108.175 38.7071L108.087 38.6303C107.959 38.5234 94.783 27.477 76.754 20.3346C60.102 13.7404 35.724 9.1795 14.2468 24.9644L14.1513 25.0378L13.9242 24.6928L14.012 24.6243C23.5692 17.6086 34.4762 13.9719 46.4379 13.7946C56.0011 13.6569 66.2493 15.7289 76.8942 19.9406C94.9781 27.1033 108.211 38.1909 108.339 38.298L108.427 38.3747L108.175 38.7071Z" fill="#213634" fill-opacity="0.2"/>
</svg>
