<svg width="114" height="48" viewBox="0 0 114 48" fill="none" xmlns="http://www.w3.org/2000/svg">
<g opacity="0.5">
<path opacity="0.5" d="M20.2695 22.6113C19.5028 22.1611 15.2771 19.2745 9.71263 20.7108C7.58899 21.2557 0.349365 21.6869 0.349365 21.6869C0.349365 21.6869 2.73845 26.2374 6.85943 26.8581C12.2943 27.6546 20.2695 22.6113 20.2695 22.6113Z" fill="#213634" fill-opacity="0.6"/>
</g>
<g opacity="0.5">
<path opacity="0.5" d="M28.1544 20.0863C28.1544 20.0863 24.0176 22.4901 22.2727 25.7061C21.5504 27.0381 18.3745 31.2505 18.3745 31.2505C18.3745 31.2505 21.7511 30.8487 23.9903 28.6258C26.9285 25.7081 28.1544 20.0863 28.1544 20.0863Z" fill="#213634" fill-opacity="0.6"/>
</g>
<g opacity="0.5">
<path opacity="0.5" d="M39.3525 16.4792C39.3525 16.4792 36.3376 11.4316 32.5676 10.6064C31.0026 10.2645 25.9969 7.79422 25.9969 7.79422C25.9969 7.79422 26.6799 12.8465 29.3591 15.028C32.879 17.8933 39.3525 16.4792 39.3525 16.4792Z" fill="#213634" fill-opacity="0.6"/>
</g>
<g opacity="0.5">
<path opacity="0.5" d="M56.7823 17.4338C56.7823 17.4338 50.5148 17.9926 46.9924 22.0941C45.5386 23.7844 39.7778 28.3804 39.7778 28.3804C39.7778 28.3804 44.2614 30.6703 48.018 28.7433C52.961 26.2208 56.7823 17.4338 56.7823 17.4338Z" fill="#213634" fill-opacity="0.6"/>
</g>
<g opacity="0.5">
<path opacity="0.5" d="M68.5692 19.7069C68.5692 19.7069 65.1886 22.8459 64.6716 26.3346C64.4627 27.7759 62.8414 32.5121 62.8414 32.5121C62.8414 32.5121 66.2751 31.5335 67.7297 28.9498C69.6495 25.5219 68.5692 19.7069 68.5692 19.7069Z" fill="#213634" fill-opacity="0.6"/>
</g>
<g opacity="0.5">
<path opacity="0.5" d="M61.8884 17.4114C61.6856 16.8465 60.8847 13.3732 57.3205 11.3661C56.0855 10.6694 52.3617 7.48874 52.3617 7.48874C52.3617 7.48874 51.9853 11.1562 53.8155 13.4515C56.2286 16.4717 61.8884 17.4114 61.8884 17.4114Z" fill="#213634" fill-opacity="0.6"/>
</g>
<path opacity="0.5" d="M111.751 42.0671L111.658 41.9876C111.524 41.8763 97.7096 30.4018 78.8072 22.9825C61.3482 16.1324 35.7892 11.3946 13.2714 27.7916L13.1713 27.8677L12.9331 27.5094L13.0252 27.4382C23.0454 20.1505 34.4808 16.3729 47.0223 16.1888C57.0485 16.0456 67.7935 18.1978 78.9539 22.5728C97.914 30.0133 111.788 41.5308 111.922 41.6421L112.015 41.7219L111.751 42.0671Z" fill="#213634" fill-opacity="0.2"/>
</svg>
