<svg width="112" height="50" viewBox="0 0 112 50" fill="none" xmlns="http://www.w3.org/2000/svg">
<g opacity="0.5">
<path opacity="0.5" d="M20.9691 24.1087C20.2318 23.673 16.1743 20.8789 10.7574 22.2807C8.69008 22.8129 1.66272 23.2422 1.66272 23.2422C1.66272 23.2422 3.91557 27.6542 7.90352 28.25C13.1633 29.0148 20.9691 24.1087 20.9691 24.1087Z" fill="#DFDCD9"/>
</g>
<g opacity="0.5">
<path opacity="0.5" d="M28.6814 21.6726C28.6814 21.6726 24.6515 24.0093 22.9203 27.1309C22.2036 28.4239 19.076 32.5137 19.076 32.5137C19.076 32.5137 22.3433 32.1197 24.5378 29.9609C27.4173 27.1273 28.6814 21.6726 28.6814 21.6726Z" fill="#DFDCD9"/>
</g>
<g opacity="0.5">
<path opacity="0.5" d="M39.4639 18.1584C39.4639 18.1584 36.5894 13.2622 32.9174 12.4673C31.3931 12.138 26.5371 9.7478 26.5371 9.7478C26.5371 9.7478 27.1332 14.6524 29.7202 16.7662C33.119 19.5426 39.4639 18.1584 39.4639 18.1584Z" fill="#DFDCD9"/>
</g>
<g opacity="0.5">
<path opacity="0.5" d="M56.4239 19.0944C56.4239 19.0944 50.3649 19.6438 46.9057 23.6265C45.4783 25.2678 39.8507 29.7325 39.8507 29.7325C39.8507 29.7325 44.1468 31.9484 47.8012 30.0749C52.6094 27.6222 56.4239 19.0944 56.4239 19.0944Z" fill="#DFDCD9"/>
</g>
<g opacity="0.5">
<path opacity="0.5" d="M67.8749 21.3043C67.8749 21.3043 64.5522 24.3553 64.0015 27.7414C63.7785 29.1399 62.1394 33.738 62.1394 33.738C62.1394 33.738 65.483 32.7834 66.9305 30.2742C68.8407 26.9449 67.8749 21.3043 67.8749 21.3043Z" fill="#DFDCD9"/>
</g>
<g opacity="0.5">
<path opacity="0.5" d="M61.2984 19.0678C61.1078 18.5194 60.3724 15.1475 56.9077 13.204C55.7073 12.5294 52.1034 9.44641 52.1034 9.44641C52.1034 9.44641 51.6824 13.0091 53.4438 15.2352C55.7657 18.1646 61.2984 19.0678 61.2984 19.0678Z" fill="#DFDCD9"/>
</g>
<path opacity="0.5" d="M109.632 43.0151L109.542 42.9377C109.411 42.8297 96.0229 31.6884 77.7028 24.4846C60.7819 17.8337 36.0103 13.2336 14.1863 29.1541L14.0893 29.2282L13.8585 28.8802L13.9477 28.8112C23.6592 21.7351 34.7423 18.0672 46.8972 17.8884C56.6148 17.7494 67.0284 19.8392 77.8452 24.0872C96.2212 31.3114 109.667 42.4945 109.798 42.6024L109.888 42.6798L109.632 43.0151Z" fill="#DFDCD9" fill-opacity="0.8"/>
</svg>
