<svg width="524" height="376" viewBox="0 0 524 376" fill="none" xmlns="http://www.w3.org/2000/svg">
<g opacity="0.5">
<path opacity="0.5" d="M422.034 181.083C425.536 177.99 444.438 158.918 474.506 159.994C485.979 160.39 523.679 154.603 523.679 154.603C523.679 154.603 515.879 179.985 495.276 187.61C468.082 197.559 422.034 181.083 422.034 181.083Z" fill="#2A4845" fill-opacity="0.54"/>
</g>
<g opacity="0.5">
<path opacity="0.5" d="M378.882 176.442C378.882 176.442 402.606 183.949 414.796 198.158C419.843 204.045 440.403 221.677 440.403 221.677C440.403 221.677 422.586 223.374 408.831 214.689C390.781 203.287 378.882 176.442 378.882 176.442Z" fill="#2A4845" fill-opacity="0.54"/>
</g>
<g opacity="0.5">
<path opacity="0.5" d="M317.31 170.652C317.31 170.652 327.802 142.198 346.328 133.964C354.019 130.549 377.263 112.765 377.263 112.765C377.263 112.765 378.738 138.692 367.144 152.494C351.912 170.624 317.31 170.652 317.31 170.652Z" fill="#2A4845" fill-opacity="0.54"/>
</g>
<g opacity="0.5">
<path opacity="0.5" d="M228.519 193.65C228.519 193.65 261.412 189.562 283.655 206.265C292.832 213.146 327.116 229.868 327.116 229.868C327.116 229.868 306.253 246.286 284.958 240.75C256.952 233.53 228.519 193.65 228.519 193.65Z" fill="#2A4845" fill-opacity="0.54"/>
</g>
<g opacity="0.5">
<path opacity="0.5" d="M170.097 217.353C170.097 217.353 190.605 229.344 196.718 246.227C199.219 253.205 212.25 275.115 212.25 275.115C212.25 275.115 193.605 273.989 183.559 262.662C170.284 247.622 170.097 217.353 170.097 217.353Z" fill="#2A4845" fill-opacity="0.54"/>
</g>
<g opacity="0.5">
<path opacity="0.5" d="M201.984 199.077C202.466 196.043 203.148 177.876 219.431 163.991C225.072 159.174 241.014 139.272 241.014 139.272C241.014 139.272 246.554 157.122 239.437 170.548C230.05 188.22 201.984 199.077 201.984 199.077Z" fill="#2A4845" fill-opacity="0.54"/>
</g>
<path opacity="0.5" d="M-30.0226 374.457L-29.6249 373.962C-29.0458 373.266 30.4769 301.512 120.392 244.554C203.442 191.96 330.434 141.3 463.346 199.07L463.94 199.344L464.802 197.307L464.255 197.051C405.119 171.387 342.272 164.696 277.395 177.065C225.531 186.974 172.31 209.07 119.215 242.672C29.0246 299.795 -30.7615 371.827 -31.3406 372.523L-31.7382 373.018L-30.0226 374.457Z" fill="#213634" fill-opacity="0.19"/>
</svg>
