<svg width="524" height="370" viewBox="0 0 524 370" fill="none" xmlns="http://www.w3.org/2000/svg">
<g clip-path="url(#clip0_102_16)">
<g opacity="0.5">
<path opacity="0.5" d="M416.278 183.083C419.978 179.99 439.947 160.918 471.713 161.994C483.833 162.391 523.661 156.603 523.661 156.603C523.661 156.603 515.421 181.985 493.654 189.61C464.925 199.559 416.278 183.083 416.278 183.083Z" fill="#DFDCD9"/>
</g>
<g opacity="0.5">
<path opacity="0.5" d="M370.69 178.443C370.69 178.443 395.753 185.949 408.631 200.159C413.963 206.045 435.684 223.678 435.684 223.678C435.684 223.678 416.861 225.375 402.33 216.689C383.261 205.288 370.69 178.443 370.69 178.443Z" fill="#DFDCD9"/>
</g>
<g opacity="0.5">
<path opacity="0.5" d="M305.642 172.652C305.642 172.652 316.726 144.198 336.298 135.964C344.423 132.549 368.98 114.765 368.98 114.765C368.98 114.765 370.538 140.693 358.289 154.495C342.197 172.624 305.642 172.652 305.642 172.652Z" fill="#DFDCD9"/>
</g>
<g opacity="0.5">
<path opacity="0.5" d="M211.839 195.65C211.839 195.65 246.588 191.562 270.087 208.265C279.781 215.147 316.002 231.868 316.002 231.868C316.002 231.868 293.961 248.286 271.464 242.75C241.876 235.531 211.839 195.65 211.839 195.65Z" fill="#DFDCD9"/>
</g>
<g opacity="0.5">
<path opacity="0.5" d="M150.119 219.353C150.119 219.353 171.785 231.344 178.242 248.227C180.885 255.205 194.651 277.116 194.651 277.116C194.651 277.116 174.954 275.989 164.341 264.662C150.317 249.623 150.119 219.353 150.119 219.353Z" fill="#DFDCD9"/>
</g>
<g opacity="0.5">
<path opacity="0.5" d="M183.806 201.077C184.315 198.043 185.035 179.876 202.238 165.991C208.197 161.174 225.039 141.273 225.039 141.273C225.039 141.273 230.893 159.122 223.373 172.548C213.456 190.22 183.806 201.077 183.806 201.077Z" fill="#DFDCD9"/>
</g>
<path opacity="0.5" d="M-61.2984 376.457L-60.8782 375.962C-60.2664 375.266 2.61641 303.512 97.6074 246.554C185.346 193.96 319.507 143.3 459.922 201.07L460.549 201.344L461.46 199.307L460.881 199.051C398.408 173.387 332.013 166.696 263.474 179.065C208.682 188.974 152.456 211.07 96.3642 244.672C1.08214 301.796 -62.0789 373.827 -62.6908 374.523L-63.1108 375.018L-61.2984 376.457Z" fill="#DFDCD9"/>
</g>
<defs>
<clipPath id="clip0_102_16">
<rect width="524" height="370" fill="white"/>
</clipPath>
</defs>
</svg>
