<svg width="525" height="214" viewBox="0 0 525 214" fill="none" xmlns="http://www.w3.org/2000/svg">
<g clip-path="url(#clip0_56_2)">
<g opacity="0.5">
<path opacity="0.5" d="M116.954 127.85C112.915 131.388 91.11 153.218 56.5641 151.844C43.3831 151.337 0.0380859 157.817 0.0380859 157.817C0.0380859 157.817 9.1155 128.687 32.8243 120.018C64.1164 108.71 116.954 127.85 116.954 127.85Z" fill="#2A4845" fill-opacity="0.54"/>
</g>
<g opacity="0.5">
<path opacity="0.5" d="M166.516 133.377C166.516 133.377 139.29 124.644 125.347 108.262C119.574 101.475 96.0293 81.121 96.0293 81.121C96.0293 81.121 116.51 79.2521 132.277 89.2941C152.965 102.477 166.516 133.377 166.516 133.377Z" fill="#2A4845" fill-opacity="0.54"/>
</g>
<g opacity="0.5">
<path opacity="0.5" d="M237.239 140.309C237.239 140.309 225.055 172.957 203.73 182.335C194.877 186.223 168.088 206.553 168.088 206.553C168.088 206.553 166.51 176.754 179.895 160.948C197.48 140.185 237.239 140.309 237.239 140.309Z" fill="#2A4845" fill-opacity="0.54"/>
</g>
<g opacity="0.5">
<path opacity="0.5" d="M339.369 114.286C339.369 114.286 301.554 118.835 276.072 99.541C265.558 91.592 226.24 72.223 226.24 72.223C226.24 72.223 250.287 53.453 274.731 59.91C306.879 68.333 339.369 114.286 339.369 114.286Z" fill="#2A4845" fill-opacity="0.54"/>
</g>
<g opacity="0.5">
<path opacity="0.5" d="M406.607 87.314C406.607 87.314 383.095 73.443 376.148 54.015C373.306 45.986 358.432 20.751 358.432 20.751C358.432 20.751 379.851 22.13 391.343 35.19C406.528 52.532 406.607 87.314 406.607 87.314Z" fill="#2A4845" fill-opacity="0.54"/>
</g>
<g opacity="0.5">
<path opacity="0.5" d="M369.884 108.17C369.316 111.654 368.451 132.526 349.677 148.407C343.174 153.917 324.765 176.712 324.765 176.712C324.765 176.712 318.48 156.177 326.719 140.782C337.586 120.518 369.884 108.17 369.884 108.17Z" fill="#2A4845" fill-opacity="0.54"/>
</g>
<path opacity="0.5" d="M637.266 -92.301L636.806 -91.734C636.138 -90.937 567.418 -8.75703 463.843 56.284C368.176 116.341 222.026 173.978 69.565 106.995L68.883 106.678L67.8835 109.014L68.5115 109.311C136.346 139.068 208.53 147.041 283.133 133.122C342.772 121.971 404.026 96.822 465.187 58.451C569.079 -6.77804 638.103 -89.276 638.771 -90.073L639.23 -90.64L637.266 -92.301Z" fill="#213634" fill-opacity="0.19"/>
</g>
<defs>
<clipPath id="clip0_56_2">
<rect width="525" height="214" fill="white"/>
</clipPath>
</defs>
</svg>
