<svg width="92" height="146" viewBox="0 0 92 146" fill="none" xmlns="http://www.w3.org/2000/svg">
<g filter="url(#filter0_d_66_656)">
<mask id="path-1-inside-1_66_656" fill="white">
<path d="M86.9785 68.3181L4.99985 0.636165L59.7779 68.3181L4.99986 136L86.9785 68.3181Z"/>
</mask>
<path d="M86.9785 68.3181L101.376 50.8788L122.5 68.3181L101.376 85.7574L86.9785 68.3181ZM4.99985 0.636165L-12.5789 14.8635L19.3978 -16.8031L4.99985 0.636165ZM4.99986 136L19.3978 153.439L-12.5789 121.773L4.99986 136ZM59.7779 68.3181L77.3567 54.0908L88.8715 68.3181L77.3567 82.5454L59.7779 68.3181ZM72.5806 85.7574L-9.39809 18.0754L19.3978 -16.8031L101.376 50.8788L72.5806 85.7574ZM-9.39808 118.561L72.5806 50.8788L101.376 85.7574L19.3978 153.439L-9.39808 118.561ZM22.5786 -13.5911L77.3567 54.0908L42.1992 82.5454L-12.5789 14.8635L22.5786 -13.5911ZM77.3567 82.5454L22.5786 150.227L-12.5789 121.773L42.1992 54.0908L77.3567 82.5454Z" fill="#A4A4A4" mask="url(#path-1-inside-1_66_656)"/>
</g>
<defs>
<filter id="filter0_d_66_656" x="0.477039" y="0.63623" width="91.0244" height="144.41" filterUnits="userSpaceOnUse" color-interpolation-filters="sRGB">
<feFlood flood-opacity="0" result="BackgroundImageFix"/>
<feColorMatrix in="SourceAlpha" type="matrix" values="0 0 0 0 0 0 0 0 0 0 0 0 0 0 0 0 0 0 127 0" result="hardAlpha"/>
<feOffset dy="4.52296"/>
<feGaussianBlur stdDeviation="2.26148"/>
<feComposite in2="hardAlpha" operator="out"/>
<feColorMatrix type="matrix" values="0 0 0 0 0 0 0 0 0 0 0 0 0 0 0 0 0 0 0.25 0"/>
<feBlend mode="normal" in2="BackgroundImageFix" result="effect1_dropShadow_66_656"/>
<feBlend mode="normal" in="SourceGraphic" in2="effect1_dropShadow_66_656" result="shape"/>
</filter>
</defs>
</svg>
