<svg width="92" height="146" viewBox="0 0 92 146" fill="none" xmlns="http://www.w3.org/2000/svg">
<g filter="url(#filter0_d_66_650)">
<mask id="path-1-inside-1_66_650" fill="white">
<path d="M5.00001 68.3181L86.9787 0.636165L32.2006 68.3181L86.9787 136L5.00001 68.3181Z"/>
</mask>
<path d="M5.00001 68.3181L-9.39793 50.8788L-30.521 68.3181L-9.39794 85.7574L5.00001 68.3181ZM86.9787 0.636165L104.557 14.8635L72.5807 -16.8031L86.9787 0.636165ZM86.9787 136L72.5807 153.439L104.557 121.773L86.9787 136ZM32.2006 68.3181L14.6218 54.0908L3.107 68.3181L14.6218 82.5454L32.2006 68.3181ZM19.398 85.7574L101.377 18.0754L72.5807 -16.8031L-9.39793 50.8788L19.398 85.7574ZM101.377 118.561L19.398 50.8788L-9.39794 85.7574L72.5807 153.439L101.377 118.561ZM69.3999 -13.5911L14.6218 54.0908L49.7793 82.5454L104.557 14.8635L69.3999 -13.5911ZM14.6218 82.5454L69.3999 150.227L104.557 121.773L49.7793 54.0908L14.6218 82.5454Z" fill="#A4A4A4" mask="url(#path-1-inside-1_66_650)"/>
</g>
<defs>
<filter id="filter0_d_66_650" x="0.477039" y="0.63623" width="91.0244" height="144.41" filterUnits="userSpaceOnUse" color-interpolation-filters="sRGB">
<feFlood flood-opacity="0" result="BackgroundImageFix"/>
<feColorMatrix in="SourceAlpha" type="matrix" values="0 0 0 0 0 0 0 0 0 0 0 0 0 0 0 0 0 0 127 0" result="hardAlpha"/>
<feOffset dy="4.52296"/>
<feGaussianBlur stdDeviation="2.26148"/>
<feComposite in2="hardAlpha" operator="out"/>
<feColorMatrix type="matrix" values="0 0 0 0 0 0 0 0 0 0 0 0 0 0 0 0 0 0 0.25 0"/>
<feBlend mode="normal" in2="BackgroundImageFix" result="effect1_dropShadow_66_650"/>
<feBlend mode="normal" in="SourceGraphic" in2="effect1_dropShadow_66_650" result="shape"/>
</filter>
</defs>
</svg>
