<svg width="275" height="116" viewBox="0 0 275 116" fill="none" xmlns="http://www.w3.org/2000/svg">
<g opacity="0.5">
<path opacity="0.5" d="M48.8959 54.644C47.0463 53.556 36.8528 46.58 23.4297 50.051C18.3069 51.368 0.842896 52.41 0.842896 52.41C0.842896 52.41 6.60604 63.407 16.547 64.907C29.6575 66.832 48.8959 54.644 48.8959 54.644Z" fill="#2A4845" fill-opacity="0.54"/>
</g>
<g opacity="0.5">
<path opacity="0.5" d="M67.9163 48.542C67.9163 48.542 57.9373 54.351 53.7281 62.123C51.9856 65.342 44.3245 75.522 44.3245 75.522C44.3245 75.522 52.4698 74.551 57.8714 69.179C64.9591 62.128 67.9163 48.542 67.9163 48.542Z" fill="#2A4845" fill-opacity="0.54"/>
</g>
<g opacity="0.5">
<path opacity="0.5" d="M94.9293 39.8248C94.9293 39.8248 87.6565 27.6263 78.5621 25.6321C74.787 24.8059 62.7119 18.836 62.7119 18.836C62.7119 18.836 64.3594 31.0456 70.8224 36.3177C79.3134 43.242 94.9293 39.8248 94.9293 39.8248Z" fill="#2A4845" fill-opacity="0.54"/>
</g>
<g opacity="0.5">
<path opacity="0.5" d="M136.975 42.1317C136.975 42.1317 121.856 43.482 113.359 53.394C109.852 57.479 95.9554 68.586 95.9554 68.586C95.9554 68.586 106.771 74.12 115.833 69.463C127.757 63.367 136.975 42.1317 136.975 42.1317Z" fill="#2A4845" fill-opacity="0.54"/>
</g>
<g opacity="0.5">
<path opacity="0.5" d="M165.408 47.625C165.408 47.625 157.253 55.211 156.006 63.642C155.502 67.125 151.591 78.571 151.591 78.571C151.591 78.571 159.874 76.206 163.383 69.962C168.014 61.678 165.408 47.625 165.408 47.625Z" fill="#2A4845" fill-opacity="0.54"/>
</g>
<g opacity="0.5">
<path opacity="0.5" d="M149.292 42.0776C148.803 40.7123 146.871 32.3187 138.273 27.4681C135.294 25.7843 126.311 18.0978 126.311 18.0978C126.311 18.0978 125.403 26.9609 129.818 32.5077C135.639 39.8067 149.292 42.0776 149.292 42.0776Z" fill="#2A4845" fill-opacity="0.54"/>
</g>
<path opacity="0.5" d="M269.574 101.662L269.35 101.47C269.026 101.201 235.703 73.471 190.105 55.541C147.989 38.9865 86.3334 27.537 32.0142 67.163L31.7727 67.347L31.1982 66.481L31.4203 66.309C55.5919 48.697 83.1774 39.5679 113.431 39.1228C137.617 38.7769 163.537 43.978 190.459 54.551C236.196 72.532 269.663 100.366 269.987 100.635L270.212 100.828L269.574 101.662Z" fill="#213634" fill-opacity="0.19"/>
</svg>
